<?xml version="1.0" encoding="utf-8" standalone="no"?>
<!DOCTYPE svg PUBLIC "-//W3C//DTD SVG 1.1//EN"
  "http://www.w3.org/Graphics/SVG/1.1/DTD/svg11.dtd">
<svg xmlns:xlink="http://www.w3.org/1999/xlink" width="360pt" height="144pt" viewBox="0 0 360 144" xmlns="http://www.w3.org/2000/svg" version="1.1">
 <metadata>
  <rdf:RDF xmlns:dc="http://purl.org/dc/elements/1.1/" xmlns:cc="http://creativecommons.org/ns#" xmlns:rdf="http://www.w3.org/1999/02/22-rdf-syntax-ns#">
   <cc:Work>
    <dc:type rdf:resource="http://purl.org/dc/dcmitype/StillImage"/>
    <dc:date>2023-07-07T00:35:11.051239</dc:date>
    <dc:format>image/svg+xml</dc:format>
    <dc:creator>
     <cc:Agent>
      <dc:title>Matplotlib v3.7.1, https://matplotlib.org/</dc:title>
     </cc:Agent>
    </dc:creator>
   </cc:Work>
  </rdf:RDF>
 </metadata>
 <defs>
  <style type="text/css">*{stroke-linejoin: round; stroke-linecap: butt}</style>
 </defs>
 <g id="figure_1">
  <g id="patch_1">
   <path d="M 0 144 
L 360 144 
L 360 0 
L 0 0 
z
" style="fill: #ffffff"/>
  </g>
  <g id="axes_1">
   <g id="patch_2">
    <path d="M 45 128.16 
L 324 128.16 
L 324 17.28 
L 45 17.28 
z
" style="fill: #ffffff"/>
   </g>
   <g id="matplotlib.axis_1">
    <g id="xtick_1">
     <g id="line2d_1">
      <path d="M 57.681818 128.16 
L 57.681818 17.28 
" clip-path="url(#pd3c2f71d3c)" style="fill: none; stroke: #b0b0b0; stroke-width: 0.8; stroke-linecap: square"/>
     </g>
     <g id="line2d_2">
      <defs>
       <path id="m1ba4cf67aa" d="M 0 0 
L 0 3.5 
" style="stroke: #000000; stroke-width: 0.8"/>
      </defs>
      <g>
       <use xlink:href="#m1ba4cf67aa" x="57.681818" y="128.16" style="stroke: #000000; stroke-width: 0.8"/>
      </g>
     </g>
     <g id="text_1">
      <!-- $\mathdefault{0}$ -->
      <g transform="translate(55.191151 142.078498) scale(0.1 -0.1)">
       <defs>
        <path id="CMR17-30" d="M 2688 2038 
C 2688 2430 2682 3099 2413 3613 
C 2176 4063 1798 4224 1466 4224 
C 1158 4224 768 4082 525 3620 
C 269 3137 243 2539 243 2038 
C 243 1671 250 1112 448 623 
C 723 -39 1216 -128 1466 -128 
C 1760 -128 2208 -7 2470 604 
C 2662 1048 2688 1568 2688 2038 
z
M 1466 -26 
C 1056 -26 813 328 723 816 
C 653 1196 653 1749 653 2109 
C 653 2604 653 3015 736 3407 
C 858 3954 1216 4121 1466 4121 
C 1728 4121 2067 3947 2189 3420 
C 2272 3054 2278 2623 2278 2109 
C 2278 1691 2278 1176 2202 797 
C 2067 96 1690 -26 1466 -26 
z
" transform="scale(0.015625)"/>
       </defs>
       <use xlink:href="#CMR17-30" transform="scale(0.996264)"/>
      </g>
     </g>
    </g>
    <g id="xtick_2">
     <g id="line2d_3">
      <path d="M 118.578904 128.16 
L 118.578904 17.28 
" clip-path="url(#pd3c2f71d3c)" style="fill: none; stroke: #b0b0b0; stroke-width: 0.8; stroke-linecap: square"/>
     </g>
     <g id="line2d_4">
      <g>
       <use xlink:href="#m1ba4cf67aa" x="118.578904" y="128.16" style="stroke: #000000; stroke-width: 0.8"/>
      </g>
     </g>
     <g id="text_2">
      <!-- $\mathdefault{10}$ -->
      <g transform="translate(113.597569 142.078498) scale(0.1 -0.1)">
       <defs>
        <path id="CMR17-31" d="M 1702 4083 
C 1702 4217 1696 4224 1606 4224 
C 1357 3927 979 3833 621 3820 
C 602 3820 570 3820 563 3808 
C 557 3795 557 3782 557 3648 
C 755 3648 1088 3686 1344 3839 
L 1344 467 
C 1344 243 1331 166 781 166 
L 589 166 
L 589 0 
C 896 6 1216 12 1523 12 
C 1830 12 2150 6 2458 0 
L 2458 166 
L 2266 166 
C 1715 166 1702 236 1702 467 
L 1702 4083 
z
" transform="scale(0.015625)"/>
       </defs>
       <use xlink:href="#CMR17-31" transform="scale(0.996264)"/>
       <use xlink:href="#CMR17-30" transform="translate(45.690477 0) scale(0.996264)"/>
      </g>
     </g>
    </g>
    <g id="xtick_3">
     <g id="line2d_5">
      <path d="M 179.47599 128.16 
L 179.47599 17.28 
" clip-path="url(#pd3c2f71d3c)" style="fill: none; stroke: #b0b0b0; stroke-width: 0.8; stroke-linecap: square"/>
     </g>
     <g id="line2d_6">
      <g>
       <use xlink:href="#m1ba4cf67aa" x="179.47599" y="128.16" style="stroke: #000000; stroke-width: 0.8"/>
      </g>
     </g>
     <g id="text_3">
      <!-- $\mathdefault{20}$ -->
      <g transform="translate(174.494655 142.078498) scale(0.1 -0.1)">
       <defs>
        <path id="CMR17-32" d="M 2669 990 
L 2554 990 
C 2490 537 2438 460 2413 422 
C 2381 371 1920 371 1830 371 
L 602 371 
C 832 620 1280 1073 1824 1596 
C 2214 1966 2669 2400 2669 3033 
C 2669 3788 2067 4224 1395 4224 
C 691 4224 262 3603 262 3027 
C 262 2777 448 2745 525 2745 
C 589 2745 781 2783 781 3007 
C 781 3206 614 3264 525 3264 
C 486 3264 448 3257 422 3244 
C 544 3788 915 4057 1306 4057 
C 1862 4057 2227 3616 2227 3033 
C 2227 2477 1901 1998 1536 1583 
L 262 147 
L 262 0 
L 2515 0 
L 2669 990 
z
" transform="scale(0.015625)"/>
       </defs>
       <use xlink:href="#CMR17-32" transform="scale(0.996264)"/>
       <use xlink:href="#CMR17-30" transform="translate(45.690477 0) scale(0.996264)"/>
      </g>
     </g>
    </g>
    <g id="xtick_4">
     <g id="line2d_7">
      <path d="M 240.373077 128.16 
L 240.373077 17.28 
" clip-path="url(#pd3c2f71d3c)" style="fill: none; stroke: #b0b0b0; stroke-width: 0.8; stroke-linecap: square"/>
     </g>
     <g id="line2d_8">
      <g>
       <use xlink:href="#m1ba4cf67aa" x="240.373077" y="128.16" style="stroke: #000000; stroke-width: 0.8"/>
      </g>
     </g>
     <g id="text_4">
      <!-- $\mathdefault{30}$ -->
      <g transform="translate(235.391741 142.078498) scale(0.1 -0.1)">
       <defs>
        <path id="CMR17-33" d="M 1414 2176 
C 1984 2176 2234 1673 2234 1094 
C 2234 322 1824 25 1453 25 
C 1114 25 563 193 390 691 
C 422 678 454 678 486 678 
C 640 678 755 780 755 947 
C 755 1132 614 1216 486 1216 
C 378 1216 211 1164 211 927 
C 211 335 787 -128 1466 -128 
C 2176 -128 2720 432 2720 1087 
C 2720 1718 2208 2176 1600 2246 
C 2086 2347 2554 2776 2554 3353 
C 2554 3856 2048 4224 1472 4224 
C 890 4224 378 3862 378 3347 
C 378 3123 544 3084 627 3084 
C 762 3084 877 3167 877 3334 
C 877 3500 762 3584 627 3584 
C 602 3584 570 3584 544 3571 
C 730 3999 1235 4076 1459 4076 
C 1683 4076 2106 3966 2106 3347 
C 2106 3167 2080 2851 1862 2574 
C 1670 2329 1453 2316 1242 2297 
C 1210 2297 1062 2284 1037 2284 
C 992 2278 966 2272 966 2227 
C 966 2182 973 2176 1101 2176 
L 1414 2176 
z
" transform="scale(0.015625)"/>
       </defs>
       <use xlink:href="#CMR17-33" transform="scale(0.996264)"/>
       <use xlink:href="#CMR17-30" transform="translate(45.690477 0) scale(0.996264)"/>
      </g>
     </g>
    </g>
    <g id="xtick_5">
     <g id="line2d_9">
      <path d="M 301.270163 128.16 
L 301.270163 17.28 
" clip-path="url(#pd3c2f71d3c)" style="fill: none; stroke: #b0b0b0; stroke-width: 0.8; stroke-linecap: square"/>
     </g>
     <g id="line2d_10">
      <g>
       <use xlink:href="#m1ba4cf67aa" x="301.270163" y="128.16" style="stroke: #000000; stroke-width: 0.8"/>
      </g>
     </g>
     <g id="text_5">
      <!-- $\mathdefault{40}$ -->
      <g transform="translate(296.288827 142.078498) scale(0.1 -0.1)">
       <defs>
        <path id="CMR17-34" d="M 2150 4147 
C 2150 4281 2144 4288 2029 4288 
L 128 1254 
L 128 1088 
L 1779 1088 
L 1779 460 
C 1779 230 1766 166 1318 166 
L 1197 166 
L 1197 0 
C 1402 12 1747 12 1965 12 
C 2182 12 2528 12 2733 0 
L 2733 166 
L 2611 166 
C 2163 166 2150 230 2150 460 
L 2150 1088 
L 2803 1088 
L 2803 1254 
L 2150 1254 
L 2150 4147 
z
M 1798 3723 
L 1798 1254 
L 256 1254 
L 1798 3723 
z
" transform="scale(0.015625)"/>
       </defs>
       <use xlink:href="#CMR17-34" transform="scale(0.996264)"/>
       <use xlink:href="#CMR17-30" transform="translate(45.690477 0) scale(0.996264)"/>
      </g>
     </g>
    </g>
    <g id="text_6">
     <!-- Tiempo [s] -->
     <g transform="translate(162.097878 155.487657) scale(0.1 -0.1)">
      <defs>
       <path id="CMSS17-54" d="M 2317 3987 
L 2848 3987 
C 2925 3987 3002 3980 3078 3980 
L 3878 3980 
L 3878 4396 
L 218 4396 
L 218 3980 
L 1018 3980 
C 1094 3980 1171 3987 1248 3987 
L 1779 3987 
L 1779 0 
L 2317 0 
L 2317 3987 
z
" transform="scale(0.015625)"/>
       <path id="CMSS17-69" d="M 979 4224 
L 442 4224 
L 442 3686 
L 979 3686 
L 979 4224 
z
M 947 2752 
L 474 2752 
L 474 0 
L 947 0 
L 947 2752 
z
" transform="scale(0.015625)"/>
       <path id="CMSS17-65" d="M 2502 1375 
C 2502 1587 2490 2001 2285 2347 
C 2061 2713 1696 2816 1421 2816 
C 755 2816 192 2184 192 1363 
C 192 579 774 -64 1510 -64 
C 1798 -64 2150 19 2470 249 
C 2470 275 2458 414 2451 421 
C 2451 433 2432 629 2432 655 
C 2125 408 1773 326 1517 326 
C 1107 326 666 667 646 1375 
L 2502 1375 
z
M 698 1728 
C 781 2086 1062 2425 1421 2425 
C 1517 2425 1965 2412 2080 1728 
L 698 1728 
z
" transform="scale(0.015625)"/>
       <path id="CMSS17-6d" d="M 4288 1878 
C 4288 2309 4179 2816 3462 2816 
C 2982 2816 2694 2515 2566 2328 
C 2451 2668 2182 2816 1798 2816 
C 1363 2816 1088 2566 941 2386 
L 941 2783 
L 474 2783 
L 474 0 
L 960 0 
L 960 1556 
C 960 1936 1101 2425 1555 2425 
C 2138 2425 2138 2013 2138 1826 
L 2138 0 
L 2624 0 
L 2624 1556 
C 2624 1936 2765 2425 3219 2425 
C 3802 2425 3802 2013 3802 1826 
L 3802 0 
L 4288 0 
L 4288 1878 
z
" transform="scale(0.015625)"/>
       <path id="CMSS17-70" d="M 966 275 
C 1178 70 1466 -64 1773 -64 
C 2368 -64 2880 553 2880 1382 
C 2880 2147 2496 2816 1946 2816 
C 1626 2816 1242 2700 954 2470 
L 954 2764 
L 480 2764 
L 480 -1280 
L 966 -1280 
L 966 275 
z
M 966 2088 
C 1018 2166 1235 2412 1587 2412 
C 2035 2412 2394 1946 2394 1382 
C 2394 741 1958 326 1530 326 
C 1402 326 1267 358 1139 468 
C 966 624 966 721 966 812 
L 966 2088 
z
" transform="scale(0.015625)"/>
       <path id="CMSS17-6f" d="M 2829 1356 
C 2829 2175 2221 2816 1504 2816 
C 768 2816 173 2156 173 1356 
C 173 544 787 -64 1498 -64 
C 2227 -64 2829 563 2829 1356 
z
M 1504 339 
C 1050 339 659 710 659 1407 
C 659 2150 1114 2425 1498 2425 
C 1914 2425 2342 2124 2342 1407 
C 2342 684 1926 339 1504 339 
z
" transform="scale(0.015625)"/>
       <path id="CMSS17-5b" d="M 1613 -1600 
L 1613 -1210 
L 1062 -1210 
L 1062 4409 
L 1613 4409 
L 1613 4800 
L 595 4800 
L 595 -1600 
L 1613 -1600 
z
" transform="scale(0.015625)"/>
       <path id="CMSS17-73" d="M 2061 2623 
C 1683 2803 1389 2816 1197 2816 
C 742 2816 198 2655 198 2009 
C 198 1363 902 1222 1094 1183 
C 1389 1126 1715 1062 1715 742 
C 1715 339 1254 339 1171 339 
C 915 339 563 409 243 639 
L 166 211 
C 531 0 883 -64 1178 -64 
C 1965 -64 2163 416 2163 780 
C 2163 1094 1984 1305 1862 1401 
C 1651 1567 1574 1587 1050 1695 
C 960 1708 646 1779 646 2067 
C 646 2431 1050 2431 1139 2431 
C 1555 2431 1811 2303 1984 2207 
L 2061 2623 
z
" transform="scale(0.015625)"/>
       <path id="CMSS17-5d" d="M 1146 4800 
L 128 4800 
L 128 4409 
L 678 4409 
L 678 -1210 
L 128 -1210 
L 128 -1600 
L 1146 -1600 
L 1146 4800 
z
" transform="scale(0.015625)"/>
      </defs>
      <use xlink:href="#CMSS17-54" transform="scale(0.996264)"/>
      <use xlink:href="#CMSS17-69" transform="translate(63.819454 0) scale(0.996264)"/>
      <use xlink:href="#CMSS17-65" transform="translate(86.000177 0) scale(0.996264)"/>
      <use xlink:href="#CMSS17-6d" transform="translate(127.638999 0) scale(0.996264)"/>
      <use xlink:href="#CMSS17-70" transform="translate(201.868253 0) scale(0.996264)"/>
      <use xlink:href="#CMSS17-6f" transform="translate(252.675635 0) scale(0.996264)"/>
      <use xlink:href="#CMSS17-5b" transform="translate(330.748372 0) scale(0.996264)"/>
      <use xlink:href="#CMSS17-73" transform="translate(357.93381 0) scale(0.996264)"/>
      <use xlink:href="#CMSS17-5d" transform="translate(393.847352 0) scale(0.996264)"/>
     </g>
    </g>
   </g>
   <g id="matplotlib.axis_2">
    <g id="ytick_1">
     <g id="line2d_11">
      <path d="M 45 123.222853 
L 324 123.222853 
" clip-path="url(#pd3c2f71d3c)" style="fill: none; stroke: #b0b0b0; stroke-width: 0.8; stroke-linecap: square"/>
     </g>
     <g id="line2d_12">
      <defs>
       <path id="mcd55957c95" d="M 0 0 
L -3.5 0 
" style="stroke: #000000; stroke-width: 0.8"/>
      </defs>
      <g>
       <use xlink:href="#mcd55957c95" x="45" y="123.222853" style="stroke: #000000; stroke-width: 0.8"/>
      </g>
     </g>
     <g id="text_7">
      <!-- $\mathdefault{0}$ -->
      <g transform="translate(33.018665 126.682102) scale(0.1 -0.1)">
       <use xlink:href="#CMR17-30" transform="scale(0.996264)"/>
      </g>
     </g>
    </g>
    <g id="ytick_2">
     <g id="line2d_13">
      <path d="M 45 98.790645 
L 324 98.790645 
" clip-path="url(#pd3c2f71d3c)" style="fill: none; stroke: #b0b0b0; stroke-width: 0.8; stroke-linecap: square"/>
     </g>
     <g id="line2d_14">
      <g>
       <use xlink:href="#mcd55957c95" x="45" y="98.790645" style="stroke: #000000; stroke-width: 0.8"/>
      </g>
     </g>
     <g id="text_8">
      <!-- $\mathdefault{250}$ -->
      <g transform="translate(23.055994 102.249894) scale(0.1 -0.1)">
       <defs>
        <path id="CMR17-35" d="M 730 3750 
C 794 3724 1056 3641 1325 3641 
C 1920 3641 2246 3961 2432 4140 
C 2432 4191 2432 4224 2394 4224 
C 2387 4224 2374 4224 2323 4198 
C 2099 4102 1837 4032 1517 4032 
C 1325 4032 1037 4055 723 4191 
C 653 4224 640 4224 634 4224 
C 602 4224 595 4217 595 4090 
L 595 2231 
C 595 2113 595 2080 659 2080 
C 691 2080 704 2093 736 2139 
C 941 2435 1222 2560 1542 2560 
C 1766 2560 2246 2415 2246 1293 
C 2246 1087 2246 716 2054 422 
C 1894 159 1645 25 1370 25 
C 947 25 518 319 403 812 
C 429 806 480 793 506 793 
C 589 793 749 838 749 1036 
C 749 1209 627 1280 506 1280 
C 358 1280 262 1190 262 1011 
C 262 454 704 -128 1382 -128 
C 2042 -128 2669 441 2669 1267 
C 2669 2054 2170 2662 1549 2662 
C 1222 2662 947 2540 730 2304 
L 730 3750 
z
" transform="scale(0.015625)"/>
       </defs>
       <use xlink:href="#CMR17-32" transform="scale(0.996264)"/>
       <use xlink:href="#CMR17-35" transform="translate(45.690477 0) scale(0.996264)"/>
       <use xlink:href="#CMR17-30" transform="translate(91.380954 0) scale(0.996264)"/>
      </g>
     </g>
    </g>
    <g id="ytick_3">
     <g id="line2d_15">
      <path d="M 45 74.358436 
L 324 74.358436 
" clip-path="url(#pd3c2f71d3c)" style="fill: none; stroke: #b0b0b0; stroke-width: 0.8; stroke-linecap: square"/>
     </g>
     <g id="line2d_16">
      <g>
       <use xlink:href="#mcd55957c95" x="45" y="74.358436" style="stroke: #000000; stroke-width: 0.8"/>
      </g>
     </g>
     <g id="text_9">
      <!-- $\mathdefault{500}$ -->
      <g transform="translate(23.055994 77.817685) scale(0.1 -0.1)">
       <use xlink:href="#CMR17-35" transform="scale(0.996264)"/>
       <use xlink:href="#CMR17-30" transform="translate(45.690477 0) scale(0.996264)"/>
       <use xlink:href="#CMR17-30" transform="translate(91.380954 0) scale(0.996264)"/>
      </g>
     </g>
    </g>
    <g id="ytick_4">
     <g id="line2d_17">
      <path d="M 45 49.926227 
L 324 49.926227 
" clip-path="url(#pd3c2f71d3c)" style="fill: none; stroke: #b0b0b0; stroke-width: 0.8; stroke-linecap: square"/>
     </g>
     <g id="line2d_18">
      <g>
       <use xlink:href="#mcd55957c95" x="45" y="49.926227" style="stroke: #000000; stroke-width: 0.8"/>
      </g>
     </g>
     <g id="text_10">
      <!-- $\mathdefault{750}$ -->
      <g transform="translate(23.055994 53.385477) scale(0.1 -0.1)">
       <defs>
        <path id="CMR17-37" d="M 2886 3955 
L 2886 4096 
L 1382 4096 
C 634 4096 621 4166 595 4288 
L 480 4288 
L 294 3104 
L 410 3104 
C 429 3226 474 3552 550 3673 
C 589 3724 1062 3724 1171 3724 
L 2579 3724 
L 1869 2670 
C 1395 1961 1069 1003 1069 166 
C 1069 89 1069 -128 1299 -128 
C 1530 -128 1530 89 1530 172 
L 1530 466 
C 1530 1514 1709 2204 2003 2644 
L 2886 3955 
z
" transform="scale(0.015625)"/>
       </defs>
       <use xlink:href="#CMR17-37" transform="scale(0.996264)"/>
       <use xlink:href="#CMR17-35" transform="translate(45.690477 0) scale(0.996264)"/>
       <use xlink:href="#CMR17-30" transform="translate(91.380954 0) scale(0.996264)"/>
      </g>
     </g>
    </g>
    <g id="ytick_5">
     <g id="line2d_19">
      <path d="M 45 25.494019 
L 324 25.494019 
" clip-path="url(#pd3c2f71d3c)" style="fill: none; stroke: #b0b0b0; stroke-width: 0.8; stroke-linecap: square"/>
     </g>
     <g id="line2d_20">
      <g>
       <use xlink:href="#mcd55957c95" x="45" y="25.494019" style="stroke: #000000; stroke-width: 0.8"/>
      </g>
     </g>
     <g id="text_11">
      <!-- $\mathdefault{1000}$ -->
      <g transform="translate(18.074659 28.953268) scale(0.1 -0.1)">
       <use xlink:href="#CMR17-31" transform="scale(0.996264)"/>
       <use xlink:href="#CMR17-30" transform="translate(45.690477 0) scale(0.996264)"/>
       <use xlink:href="#CMR17-30" transform="translate(91.380954 0) scale(0.996264)"/>
       <use xlink:href="#CMR17-30" transform="translate(137.071431 0) scale(0.996264)"/>
      </g>
     </g>
    </g>
    <g id="text_12">
     <!-- Posición [m] -->
     <g transform="translate(11.583999 98.318464) rotate(-90) scale(0.1 -0.1)">
      <defs>
       <path id="CMSS17-50" d="M 2106 1856 
C 2874 1856 3501 2447 3501 3139 
C 3501 3818 2899 4416 2067 4416 
L 570 4416 
L 570 0 
L 1107 0 
L 1107 1856 
L 2106 1856 
z
M 1926 4057 
C 2669 4057 2995 3598 2995 3139 
C 2995 2711 2694 2227 1926 2227 
L 1094 2227 
L 1094 4057 
L 1926 4057 
z
" transform="scale(0.015625)"/>
       <path id="CMSS17-63" d="M 2464 2540 
C 2464 2585 2170 2713 2093 2739 
C 1882 2816 1613 2816 1542 2816 
C 710 2816 211 2092 211 1363 
C 211 595 768 -64 1517 -64 
C 1946 -64 2253 76 2502 243 
L 2464 665 
C 2189 454 1869 339 1523 339 
C 1024 339 698 774 698 1369 
C 698 1830 909 2412 1549 2412 
C 1901 2412 2099 2342 2394 2143 
L 2464 2540 
z
" transform="scale(0.015625)"/>
       <path id="CMSS17-13" d="M 2502 4416 
L 2016 4416 
L 1222 3321 
L 1613 3321 
L 2502 4416 
z
" transform="scale(0.015625)"/>
       <path id="CMSS17-6e" d="M 2618 1878 
C 2618 2283 2522 2816 1798 2816 
C 1389 2816 1120 2604 941 2386 
L 941 2783 
L 474 2783 
L 474 0 
L 960 0 
L 960 1556 
C 960 1962 1114 2425 1549 2425 
C 2112 2425 2131 2045 2131 1826 
L 2131 0 
L 2618 0 
L 2618 1878 
z
" transform="scale(0.015625)"/>
      </defs>
      <use xlink:href="#CMSS17-50" transform="scale(0.996264)"/>
      <use xlink:href="#CMSS17-6f" transform="translate(57.133132 0) scale(0.996264)"/>
      <use xlink:href="#CMSS17-73" transform="translate(103.976756 0) scale(0.996264)"/>
      <use xlink:href="#CMSS17-69" transform="translate(139.890298 0) scale(0.996264)"/>
      <use xlink:href="#CMSS17-63" transform="translate(162.071021 0) scale(0.996264)"/>
      <use xlink:href="#CMSS17-69" transform="translate(203.709843 0) scale(0.996264)"/>
      <use xlink:href="#CMSS17-13" transform="translate(225.890566 0) scale(0.996264)"/>
      <use xlink:href="#CMSS17-6f" transform="translate(225.890566 0) scale(0.996264)"/>
      <use xlink:href="#CMSS17-6e" transform="translate(272.73419 0) scale(0.996264)"/>
      <use xlink:href="#CMSS17-5b" transform="translate(352.168245 0) scale(0.996264)"/>
      <use xlink:href="#CMSS17-6d" transform="translate(379.353684 0) scale(0.996264)"/>
      <use xlink:href="#CMSS17-5d" transform="translate(453.582938 0) scale(0.996264)"/>
     </g>
    </g>
   </g>
   <g id="line2d_21">
    <path d="M 57.681818 105.818987 
L 57.783313 105.413173 
L 57.884808 104.225155 
L 57.986304 105.598922 
L 58.189294 103.95201 
L 58.392284 103.075288 
L 58.493779 102.589353 
L 58.595274 101.532311 
L 58.69677 102.158015 
L 58.798265 101.915024 
L 58.89976 101.974623 
L 59.10275 101.793752 
L 59.30574 102.132238 
L 59.407236 102.288764 
L 59.508731 102.755677 
L 59.610226 102.621356 
L 59.711721 102.759904 
L 59.914711 102.409212 
L 60.016206 103.047357 
L 60.117702 102.746404 
L 60.219197 103.051453 
L 60.320692 102.992352 
L 60.523682 103.298385 
L 60.625177 103.170534 
L 60.726672 103.14781 
L 60.929663 103.333435 
L 61.437138 102.94659 
L 61.538634 103.070045 
L 61.741624 102.846333 
L 62.046109 102.964149 
L 62.147604 102.851895 
L 62.45209 102.908321 
L 62.65508 102.888985 
L 62.756575 103.063154 
L 62.858071 103.002722 
L 63.162556 103.270422 
L 63.264051 103.050292 
L 63.568537 103.19 
L 63.670032 103.050619 
L 64.481993 103.546377 
L 64.786478 103.361424 
L 64.887973 103.453875 
L 64.989469 103.352259 
L 65.192459 103.543575 
L 65.496944 103.325296 
L 70.977682 103.246206 
L 71.180672 103.215065 
L 71.485158 103.309986 
L 72.195624 103.336284 
L 72.500109 103.511187 
L 73.10908 103.712348 
L 73.515061 103.698366 
L 73.718051 103.645645 
L 75.341973 104.002301 
L 75.646459 103.925939 
L 78.285332 104.519452 
L 78.792808 104.672544 
L 80.518225 104.99509 
L 80.924206 104.972869 
L 84.273546 105.61762 
L 84.882517 105.789693 
L 85.592983 105.802436 
L 85.998963 105.965848 
L 86.91242 106.093076 
L 88.840827 106.438902 
L 90.058769 106.735453 
L 90.66774 106.830862 
L 91.581196 107.052994 
L 91.987177 107.100034 
L 93.509604 107.302009 
L 95.032031 107.500992 
L 95.843992 107.655317 
L 96.452963 107.737339 
L 97.56941 107.966357 
L 98.076885 108.03866 
L 100.614264 108.318025 
L 102.339681 108.602535 
L 103.050147 108.676783 
L 110.459293 109.710141 
L 111.474244 109.943513 
L 114.417603 110.288476 
L 114.823584 110.322555 
L 115.940031 110.487572 
L 120.811797 111.20665 
L 127.611972 111.953028 
L 128.220943 112.057005 
L 131.570283 112.428501 
L 133.09271 112.576308 
L 133.904671 112.642067 
L 136.239059 112.934846 
L 139.080923 113.206148 
L 141.110826 113.520851 
L 153.797719 115.381653 
L 154.60968 115.48017 
L 156.030612 115.650347 
L 157.248554 115.854896 
L 172.066845 117.710659 
L 172.878806 117.790498 
L 175.416185 118.095128 
L 176.228146 118.145305 
L 178.258049 118.353243 
L 179.780476 118.51105 
L 189.321019 119.557947 
L 191.959893 119.740002 
L 192.467369 119.791601 
L 193.68531 119.874796 
L 194.091291 119.91499 
L 198.658573 120.196353 
L 199.470534 120.266552 
L 200.58698 120.349047 
L 203.022864 120.488171 
L 208.097621 120.759899 
L 208.808087 120.785967 
L 211.345465 120.924425 
L 211.954436 120.96245 
L 213.781349 121.08914 
L 219.262087 121.346951 
L 222.002456 121.497718 
L 224.032358 121.54536 
L 225.554786 121.584905 
L 226.468242 121.630686 
L 226.874222 121.647932 
L 227.686184 121.672915 
L 236.922242 121.921139 
L 238.038688 121.998249 
L 240.068591 122.065407 
L 240.779057 122.097028 
L 241.489523 122.035956 
L 242.402979 122.088384 
L 242.910455 122.109338 
L 245.244843 122.134035 
L 248.289698 122.185035 
L 249.406144 122.186555 
L 250.624086 122.218219 
L 251.334552 122.243077 
L 264.427426 122.148499 
L 265.137892 122.098992 
L 267.47228 122.092732 
L 268.182746 122.097754 
L 290.004202 122.123831 
L 290.917658 122.120043 
L 302.99558 122.095717 
L 303.503056 122.122529 
L 305.329968 122.089588 
L 307.664357 122.015179 
L 308.374823 122.011422 
L 310.912201 122.057058 
L 311.318182 122.031297 
L 311.318182 122.031297 
" clip-path="url(#pd3c2f71d3c)" style="fill: none; stroke: #1f77b4; stroke-width: 1.5; stroke-linecap: square"/>
   </g>
   <g id="line2d_22">
    <path d="M 57.681818 23.480036 
L 57.783313 24.424821 
L 57.884808 22.32 
L 57.986304 24.734234 
L 58.087799 23.314482 
L 58.189294 23.677988 
L 58.392284 23.274785 
L 58.493779 23.351918 
L 58.69677 24.065479 
L 58.798265 24.408475 
L 58.89976 24.271893 
L 59.001255 24.921882 
L 59.204245 24.36966 
L 59.610226 25.489961 
L 59.711721 25.133774 
L 60.117702 26.290553 
L 60.219197 26.419644 
L 60.422187 27.051784 
L 60.523682 26.960712 
L 60.625177 27.253095 
L 60.726672 27.002728 
L 60.828168 27.063431 
L 61.031158 27.400278 
L 61.437138 27.793103 
L 61.843119 28.686552 
L 61.944614 28.525578 
L 62.2491 29.188365 
L 62.45209 29.348897 
L 62.858071 29.889464 
L 62.959566 29.938093 
L 63.162556 30.195583 
L 63.365546 30.2183 
L 64.177507 31.343871 
L 64.481993 31.63927 
L 64.786478 31.967094 
L 65.293954 32.52849 
L 66.20741 33.846539 
L 66.511896 34.21481 
L 66.917876 35.058798 
L 67.628342 36.268169 
L 68.643294 37.969042 
L 68.947779 38.496026 
L 69.75974 39.858905 
L 73.413565 46.524242 
L 74.124031 47.806224 
L 74.530012 48.622072 
L 75.138983 49.765002 
L 76.255429 51.760003 
L 79.198789 57.29614 
L 79.807759 58.437162 
L 80.721216 60.106578 
L 82.243643 62.669151 
L 82.954109 63.918351 
L 84.273546 66.166279 
L 84.679526 66.860341 
L 85.389992 68.020132 
L 86.100458 69.201235 
L 87.11541 70.833498 
L 87.724381 71.792027 
L 88.434847 72.878414 
L 95.336516 82.405015 
L 95.843992 83.030881 
L 102.035196 90.18189 
L 105.892011 94.165958 
L 106.602477 94.784178 
L 108.733875 96.701706 
L 109.748827 97.449608 
L 111.474244 98.779643 
L 118.375914 103.561217 
L 118.984885 103.980021 
L 123.653661 106.766097 
L 125.886555 107.953091 
L 129.33739 109.676776 
L 130.555331 110.202897 
L 131.773273 110.691846 
L 137.355506 112.832798 
L 139.283914 113.530381 
L 140.501855 113.941598 
L 142.328768 114.452899 
L 143.039234 114.681827 
L 143.851195 114.917114 
L 145.170632 115.348851 
L 155.523137 117.653506 
L 156.335098 117.796622 
L 158.263505 118.125477 
L 159.278457 118.249527 
L 161.003874 118.589959 
L 172.574321 119.914976 
L 173.487777 120.039797 
L 174.807214 120.157711 
L 175.619175 120.216364 
L 182.317854 120.792889 
L 194.091291 121.497605 
L 202.413893 121.855969 
L 203.73333 121.898478 
L 204.443796 121.955212 
L 209.518553 122.033019 
L 211.446961 122.089078 
L 237.734203 122.610518 
L 239.358125 122.614339 
L 240.677562 122.644479 
L 288.58327 123.028629 
L 290.308687 123.022076 
L 294.672978 123.076857 
L 295.281949 123.093644 
L 297.920823 123.110724 
L 299.849231 123.062287 
L 303.300065 123.038837 
L 309.288279 123.022557 
L 311.318182 123.043752 
L 311.318182 123.043752 
" clip-path="url(#pd3c2f71d3c)" style="fill: none; stroke: #ff7f0e; stroke-width: 1.5; stroke-linecap: square"/>
   </g>
   <g id="patch_3">
    <path d="M 45 128.16 
L 45 17.28 
" style="fill: none; stroke: #000000; stroke-width: 0.8; stroke-linejoin: miter; stroke-linecap: square"/>
   </g>
   <g id="patch_4">
    <path d="M 324 128.16 
L 324 17.28 
" style="fill: none; stroke: #000000; stroke-width: 0.8; stroke-linejoin: miter; stroke-linecap: square"/>
   </g>
   <g id="patch_5">
    <path d="M 45 128.16 
L 324 128.16 
" style="fill: none; stroke: #000000; stroke-width: 0.8; stroke-linejoin: miter; stroke-linecap: square"/>
   </g>
   <g id="patch_6">
    <path d="M 45 17.28 
L 324 17.28 
" style="fill: none; stroke: #000000; stroke-width: 0.8; stroke-linejoin: miter; stroke-linecap: square"/>
   </g>
   <g id="legend_1">
    <g id="patch_7">
     <path d="M 267.959714 55.20528 
L 317 55.20528 
Q 319 55.20528 319 53.20528 
L 319 24.28 
Q 319 22.28 317 22.28 
L 267.959714 22.28 
Q 265.959714 22.28 265.959714 24.28 
L 265.959714 53.20528 
Q 265.959714 55.20528 267.959714 55.20528 
z
" style="fill: #ffffff; opacity: 0.8; stroke: #cccccc; stroke-linejoin: miter"/>
    </g>
    <g id="line2d_23">
     <path d="M 269.959714 30.25198 
L 279.959714 30.25198 
L 289.959714 30.25198 
" style="fill: none; stroke: #1f77b4; stroke-width: 1.5; stroke-linecap: square"/>
    </g>
    <g id="text_13">
     <!-- $x(t)$ -->
     <g transform="translate(297.959714 33.75198) scale(0.1 -0.1)">
      <defs>
       <path id="CMMI12-78" d="M 3034 2624 
C 2829 2585 2752 2431 2752 2310 
C 2752 2156 2874 2105 2963 2105 
C 3155 2105 3290 2271 3290 2444 
C 3290 2694 2982 2816 2714 2816 
C 2323 2816 2106 2451 2048 2329 
C 1901 2790 1504 2816 1389 2816 
C 736 2816 390 1993 390 1849 
C 390 1823 416 1790 461 1790 
C 512 1790 525 1829 538 1855 
C 755 2572 1184 2687 1370 2687 
C 1658 2687 1715 2438 1715 2284 
C 1715 2143 1677 1993 1600 1678 
L 1382 778 
C 1286 390 1101 64 762 64 
C 730 64 570 64 435 126 
C 666 166 717 358 717 435 
C 717 563 621 640 499 640 
C 346 640 179 505 179 300 
C 179 57 480 -64 755 -64 
C 1062 -64 1280 153 1414 415 
C 1517 64 1837 -64 2074 -64 
C 2726 -64 3072 751 3072 896 
C 3072 929 3046 955 3008 955 
C 2950 955 2944 922 2925 870 
C 2752 300 2381 64 2093 64 
C 1869 64 1747 204 1747 467 
C 1747 607 1773 712 1875 1146 
L 2099 2039 
C 2195 2425 2413 2687 2707 2687 
C 2720 2687 2899 2687 3034 2624 
z
" transform="scale(0.015625)"/>
       <path id="CMR17-28" d="M 1958 -1562 
C 1958 -1556 1958 -1543 1939 -1524 
C 1645 -1223 858 -403 858 1596 
C 858 3595 1632 4408 1946 4729 
C 1946 4735 1958 4748 1958 4767 
C 1958 4787 1939 4800 1914 4800 
C 1843 4800 1299 4325 986 3620 
C 666 2909 576 2218 576 1603 
C 576 1141 621 360 1005 -467 
C 1312 -1133 1837 -1600 1914 -1600 
C 1946 -1600 1958 -1588 1958 -1562 
z
" transform="scale(0.015625)"/>
       <path id="CMMI12-74" d="M 1286 2566 
L 1875 2566 
C 1997 2566 2061 2566 2061 2681 
C 2061 2752 2022 2752 1894 2752 
L 1331 2752 
L 1568 3664 
C 1594 3752 1594 3764 1594 3808 
C 1594 3910 1510 3968 1427 3968 
C 1376 3968 1229 3948 1178 3746 
L 928 2752 
L 326 2752 
C 198 2752 141 2752 141 2630 
C 141 2566 186 2566 307 2566 
L 877 2566 
L 454 881 
C 403 657 384 593 384 510 
C 384 210 595 -64 954 -64 
C 1600 -64 1946 868 1946 913 
C 1946 951 1920 970 1882 970 
C 1869 970 1843 970 1830 944 
C 1824 938 1818 932 1773 830 
C 1638 510 1344 64 973 64 
C 781 64 768 223 768 364 
C 768 370 768 491 787 568 
L 1286 2566 
z
" transform="scale(0.015625)"/>
       <path id="CMR17-29" d="M 1683 1596 
C 1683 2057 1638 2839 1254 3665 
C 947 4332 422 4800 346 4800 
C 326 4800 301 4793 301 4761 
C 301 4748 307 4742 314 4729 
C 621 4408 1402 3595 1402 1603 
C 1402 -396 627 -1210 314 -1530 
C 307 -1543 301 -1549 301 -1562 
C 301 -1594 326 -1600 346 -1600 
C 416 -1600 960 -1127 1274 -422 
C 1594 289 1683 981 1683 1596 
z
" transform="scale(0.015625)"/>
      </defs>
      <use xlink:href="#CMMI12-78" transform="scale(0.996264)"/>
      <use xlink:href="#CMR17-28" transform="translate(55.43406 0) scale(0.996264)"/>
      <use xlink:href="#CMMI12-74" transform="translate(90.714827 0) scale(0.996264)"/>
      <use xlink:href="#CMR17-29" transform="translate(125.941158 0) scale(0.996264)"/>
     </g>
    </g>
    <g id="line2d_24">
     <path d="M 269.959714 45.21462 
L 279.959714 45.21462 
L 289.959714 45.21462 
" style="fill: none; stroke: #ff7f0e; stroke-width: 1.5; stroke-linecap: square"/>
    </g>
    <g id="text_14">
     <!-- $y(t)$ -->
     <g transform="translate(297.959714 48.71462) scale(0.1 -0.1)">
      <defs>
       <path id="CMMI12-79" d="M 1683 -673 
C 1510 -921 1261 -1152 947 -1152 
C 870 -1152 563 -1139 467 -826 
C 486 -833 518 -833 531 -833 
C 723 -833 851 -666 851 -519 
C 851 -372 730 -320 634 -320 
C 531 -320 307 -397 307 -711 
C 307 -1050 582 -1280 947 -1280 
C 1587 -1280 2234 -673 2413 -7 
L 3040 2483 
C 3046 2515 3059 2553 3059 2591 
C 3059 2687 2982 2752 2886 2752 
C 2829 2752 2694 2726 2643 2534 
L 2170 657 
C 2138 542 2138 530 2086 459 
C 1958 281 1747 64 1440 64 
C 1082 64 1050 415 1050 587 
C 1050 951 1222 1443 1395 1902 
C 1466 2087 1504 2177 1504 2305 
C 1504 2573 1312 2816 998 2816 
C 410 2816 173 1890 173 1838 
C 173 1813 198 1781 243 1781 
C 301 1781 307 1807 333 1896 
C 486 2432 730 2687 979 2687 
C 1037 2687 1146 2687 1146 2477 
C 1146 2311 1075 2126 979 1883 
C 666 1047 666 836 666 683 
C 666 76 1101 -64 1421 -64 
C 1606 -64 1837 -7 2061 230 
L 2067 223 
C 1971 -141 1907 -359 1683 -673 
z
" transform="scale(0.015625)"/>
      </defs>
      <use xlink:href="#CMMI12-79" transform="scale(0.996264)"/>
      <use xlink:href="#CMR17-28" transform="translate(51.138781 0) scale(0.996264)"/>
      <use xlink:href="#CMMI12-74" transform="translate(86.419549 0) scale(0.996264)"/>
      <use xlink:href="#CMR17-29" transform="translate(121.645879 0) scale(0.996264)"/>
     </g>
    </g>
   </g>
  </g>
 </g>
 <defs>
  <clipPath id="pd3c2f71d3c">
   <rect x="45" y="17.28" width="279" height="110.88"/>
  </clipPath>
 </defs>
</svg>
