<?xml version="1.0" encoding="utf-8" standalone="no"?>
<!DOCTYPE svg PUBLIC "-//W3C//DTD SVG 1.1//EN"
  "http://www.w3.org/Graphics/SVG/1.1/DTD/svg11.dtd">
<svg xmlns:xlink="http://www.w3.org/1999/xlink" width="360pt" height="144pt" viewBox="0 0 360 144" xmlns="http://www.w3.org/2000/svg" version="1.1">
 <metadata>
  <rdf:RDF xmlns:dc="http://purl.org/dc/elements/1.1/" xmlns:cc="http://creativecommons.org/ns#" xmlns:rdf="http://www.w3.org/1999/02/22-rdf-syntax-ns#">
   <cc:Work>
    <dc:type rdf:resource="http://purl.org/dc/dcmitype/StillImage"/>
    <dc:date>2023-07-07T00:35:11.292240</dc:date>
    <dc:format>image/svg+xml</dc:format>
    <dc:creator>
     <cc:Agent>
      <dc:title>Matplotlib v3.7.1, https://matplotlib.org/</dc:title>
     </cc:Agent>
    </dc:creator>
   </cc:Work>
  </rdf:RDF>
 </metadata>
 <defs>
  <style type="text/css">*{stroke-linejoin: round; stroke-linecap: butt}</style>
 </defs>
 <g id="figure_1">
  <g id="patch_1">
   <path d="M 0 144 
L 360 144 
L 360 0 
L 0 0 
z
" style="fill: #ffffff"/>
  </g>
  <g id="axes_1">
   <g id="patch_2">
    <path d="M 45 128.16 
L 324 128.16 
L 324 17.28 
L 45 17.28 
z
" style="fill: #ffffff"/>
   </g>
   <g id="matplotlib.axis_1">
    <g id="xtick_1">
     <g id="line2d_1">
      <path d="M 57.681818 128.16 
L 57.681818 17.28 
" clip-path="url(#p5619cdd4c9)" style="fill: none; stroke: #b0b0b0; stroke-width: 0.8; stroke-linecap: square"/>
     </g>
     <g id="line2d_2">
      <defs>
       <path id="mc92877b1b6" d="M 0 0 
L 0 3.5 
" style="stroke: #000000; stroke-width: 0.8"/>
      </defs>
      <g>
       <use xlink:href="#mc92877b1b6" x="57.681818" y="128.16" style="stroke: #000000; stroke-width: 0.8"/>
      </g>
     </g>
     <g id="text_1">
      <!-- $\mathdefault{0}$ -->
      <g transform="translate(55.191151 142.078498) scale(0.1 -0.1)">
       <defs>
        <path id="CMR17-30" d="M 2688 2038 
C 2688 2430 2682 3099 2413 3613 
C 2176 4063 1798 4224 1466 4224 
C 1158 4224 768 4082 525 3620 
C 269 3137 243 2539 243 2038 
C 243 1671 250 1112 448 623 
C 723 -39 1216 -128 1466 -128 
C 1760 -128 2208 -7 2470 604 
C 2662 1048 2688 1568 2688 2038 
z
M 1466 -26 
C 1056 -26 813 328 723 816 
C 653 1196 653 1749 653 2109 
C 653 2604 653 3015 736 3407 
C 858 3954 1216 4121 1466 4121 
C 1728 4121 2067 3947 2189 3420 
C 2272 3054 2278 2623 2278 2109 
C 2278 1691 2278 1176 2202 797 
C 2067 96 1690 -26 1466 -26 
z
" transform="scale(0.015625)"/>
       </defs>
       <use xlink:href="#CMR17-30" transform="scale(0.996264)"/>
      </g>
     </g>
    </g>
    <g id="xtick_2">
     <g id="line2d_3">
      <path d="M 118.578904 128.16 
L 118.578904 17.28 
" clip-path="url(#p5619cdd4c9)" style="fill: none; stroke: #b0b0b0; stroke-width: 0.8; stroke-linecap: square"/>
     </g>
     <g id="line2d_4">
      <g>
       <use xlink:href="#mc92877b1b6" x="118.578904" y="128.16" style="stroke: #000000; stroke-width: 0.8"/>
      </g>
     </g>
     <g id="text_2">
      <!-- $\mathdefault{10}$ -->
      <g transform="translate(113.597569 142.078498) scale(0.1 -0.1)">
       <defs>
        <path id="CMR17-31" d="M 1702 4083 
C 1702 4217 1696 4224 1606 4224 
C 1357 3927 979 3833 621 3820 
C 602 3820 570 3820 563 3808 
C 557 3795 557 3782 557 3648 
C 755 3648 1088 3686 1344 3839 
L 1344 467 
C 1344 243 1331 166 781 166 
L 589 166 
L 589 0 
C 896 6 1216 12 1523 12 
C 1830 12 2150 6 2458 0 
L 2458 166 
L 2266 166 
C 1715 166 1702 236 1702 467 
L 1702 4083 
z
" transform="scale(0.015625)"/>
       </defs>
       <use xlink:href="#CMR17-31" transform="scale(0.996264)"/>
       <use xlink:href="#CMR17-30" transform="translate(45.690477 0) scale(0.996264)"/>
      </g>
     </g>
    </g>
    <g id="xtick_3">
     <g id="line2d_5">
      <path d="M 179.47599 128.16 
L 179.47599 17.28 
" clip-path="url(#p5619cdd4c9)" style="fill: none; stroke: #b0b0b0; stroke-width: 0.8; stroke-linecap: square"/>
     </g>
     <g id="line2d_6">
      <g>
       <use xlink:href="#mc92877b1b6" x="179.47599" y="128.16" style="stroke: #000000; stroke-width: 0.8"/>
      </g>
     </g>
     <g id="text_3">
      <!-- $\mathdefault{20}$ -->
      <g transform="translate(174.494655 142.078498) scale(0.1 -0.1)">
       <defs>
        <path id="CMR17-32" d="M 2669 990 
L 2554 990 
C 2490 537 2438 460 2413 422 
C 2381 371 1920 371 1830 371 
L 602 371 
C 832 620 1280 1073 1824 1596 
C 2214 1966 2669 2400 2669 3033 
C 2669 3788 2067 4224 1395 4224 
C 691 4224 262 3603 262 3027 
C 262 2777 448 2745 525 2745 
C 589 2745 781 2783 781 3007 
C 781 3206 614 3264 525 3264 
C 486 3264 448 3257 422 3244 
C 544 3788 915 4057 1306 4057 
C 1862 4057 2227 3616 2227 3033 
C 2227 2477 1901 1998 1536 1583 
L 262 147 
L 262 0 
L 2515 0 
L 2669 990 
z
" transform="scale(0.015625)"/>
       </defs>
       <use xlink:href="#CMR17-32" transform="scale(0.996264)"/>
       <use xlink:href="#CMR17-30" transform="translate(45.690477 0) scale(0.996264)"/>
      </g>
     </g>
    </g>
    <g id="xtick_4">
     <g id="line2d_7">
      <path d="M 240.373077 128.16 
L 240.373077 17.28 
" clip-path="url(#p5619cdd4c9)" style="fill: none; stroke: #b0b0b0; stroke-width: 0.8; stroke-linecap: square"/>
     </g>
     <g id="line2d_8">
      <g>
       <use xlink:href="#mc92877b1b6" x="240.373077" y="128.16" style="stroke: #000000; stroke-width: 0.8"/>
      </g>
     </g>
     <g id="text_4">
      <!-- $\mathdefault{30}$ -->
      <g transform="translate(235.391741 142.078498) scale(0.1 -0.1)">
       <defs>
        <path id="CMR17-33" d="M 1414 2176 
C 1984 2176 2234 1673 2234 1094 
C 2234 322 1824 25 1453 25 
C 1114 25 563 193 390 691 
C 422 678 454 678 486 678 
C 640 678 755 780 755 947 
C 755 1132 614 1216 486 1216 
C 378 1216 211 1164 211 927 
C 211 335 787 -128 1466 -128 
C 2176 -128 2720 432 2720 1087 
C 2720 1718 2208 2176 1600 2246 
C 2086 2347 2554 2776 2554 3353 
C 2554 3856 2048 4224 1472 4224 
C 890 4224 378 3862 378 3347 
C 378 3123 544 3084 627 3084 
C 762 3084 877 3167 877 3334 
C 877 3500 762 3584 627 3584 
C 602 3584 570 3584 544 3571 
C 730 3999 1235 4076 1459 4076 
C 1683 4076 2106 3966 2106 3347 
C 2106 3167 2080 2851 1862 2574 
C 1670 2329 1453 2316 1242 2297 
C 1210 2297 1062 2284 1037 2284 
C 992 2278 966 2272 966 2227 
C 966 2182 973 2176 1101 2176 
L 1414 2176 
z
" transform="scale(0.015625)"/>
       </defs>
       <use xlink:href="#CMR17-33" transform="scale(0.996264)"/>
       <use xlink:href="#CMR17-30" transform="translate(45.690477 0) scale(0.996264)"/>
      </g>
     </g>
    </g>
    <g id="xtick_5">
     <g id="line2d_9">
      <path d="M 301.270163 128.16 
L 301.270163 17.28 
" clip-path="url(#p5619cdd4c9)" style="fill: none; stroke: #b0b0b0; stroke-width: 0.8; stroke-linecap: square"/>
     </g>
     <g id="line2d_10">
      <g>
       <use xlink:href="#mc92877b1b6" x="301.270163" y="128.16" style="stroke: #000000; stroke-width: 0.8"/>
      </g>
     </g>
     <g id="text_5">
      <!-- $\mathdefault{40}$ -->
      <g transform="translate(296.288827 142.078498) scale(0.1 -0.1)">
       <defs>
        <path id="CMR17-34" d="M 2150 4147 
C 2150 4281 2144 4288 2029 4288 
L 128 1254 
L 128 1088 
L 1779 1088 
L 1779 460 
C 1779 230 1766 166 1318 166 
L 1197 166 
L 1197 0 
C 1402 12 1747 12 1965 12 
C 2182 12 2528 12 2733 0 
L 2733 166 
L 2611 166 
C 2163 166 2150 230 2150 460 
L 2150 1088 
L 2803 1088 
L 2803 1254 
L 2150 1254 
L 2150 4147 
z
M 1798 3723 
L 1798 1254 
L 256 1254 
L 1798 3723 
z
" transform="scale(0.015625)"/>
       </defs>
       <use xlink:href="#CMR17-34" transform="scale(0.996264)"/>
       <use xlink:href="#CMR17-30" transform="translate(45.690477 0) scale(0.996264)"/>
      </g>
     </g>
    </g>
    <g id="text_6">
     <!-- Tiempo [s] -->
     <g transform="translate(162.097878 155.487657) scale(0.1 -0.1)">
      <defs>
       <path id="CMSS17-54" d="M 2317 3987 
L 2848 3987 
C 2925 3987 3002 3980 3078 3980 
L 3878 3980 
L 3878 4396 
L 218 4396 
L 218 3980 
L 1018 3980 
C 1094 3980 1171 3987 1248 3987 
L 1779 3987 
L 1779 0 
L 2317 0 
L 2317 3987 
z
" transform="scale(0.015625)"/>
       <path id="CMSS17-69" d="M 979 4224 
L 442 4224 
L 442 3686 
L 979 3686 
L 979 4224 
z
M 947 2752 
L 474 2752 
L 474 0 
L 947 0 
L 947 2752 
z
" transform="scale(0.015625)"/>
       <path id="CMSS17-65" d="M 2502 1375 
C 2502 1587 2490 2001 2285 2347 
C 2061 2713 1696 2816 1421 2816 
C 755 2816 192 2184 192 1363 
C 192 579 774 -64 1510 -64 
C 1798 -64 2150 19 2470 249 
C 2470 275 2458 414 2451 421 
C 2451 433 2432 629 2432 655 
C 2125 408 1773 326 1517 326 
C 1107 326 666 667 646 1375 
L 2502 1375 
z
M 698 1728 
C 781 2086 1062 2425 1421 2425 
C 1517 2425 1965 2412 2080 1728 
L 698 1728 
z
" transform="scale(0.015625)"/>
       <path id="CMSS17-6d" d="M 4288 1878 
C 4288 2309 4179 2816 3462 2816 
C 2982 2816 2694 2515 2566 2328 
C 2451 2668 2182 2816 1798 2816 
C 1363 2816 1088 2566 941 2386 
L 941 2783 
L 474 2783 
L 474 0 
L 960 0 
L 960 1556 
C 960 1936 1101 2425 1555 2425 
C 2138 2425 2138 2013 2138 1826 
L 2138 0 
L 2624 0 
L 2624 1556 
C 2624 1936 2765 2425 3219 2425 
C 3802 2425 3802 2013 3802 1826 
L 3802 0 
L 4288 0 
L 4288 1878 
z
" transform="scale(0.015625)"/>
       <path id="CMSS17-70" d="M 966 275 
C 1178 70 1466 -64 1773 -64 
C 2368 -64 2880 553 2880 1382 
C 2880 2147 2496 2816 1946 2816 
C 1626 2816 1242 2700 954 2470 
L 954 2764 
L 480 2764 
L 480 -1280 
L 966 -1280 
L 966 275 
z
M 966 2088 
C 1018 2166 1235 2412 1587 2412 
C 2035 2412 2394 1946 2394 1382 
C 2394 741 1958 326 1530 326 
C 1402 326 1267 358 1139 468 
C 966 624 966 721 966 812 
L 966 2088 
z
" transform="scale(0.015625)"/>
       <path id="CMSS17-6f" d="M 2829 1356 
C 2829 2175 2221 2816 1504 2816 
C 768 2816 173 2156 173 1356 
C 173 544 787 -64 1498 -64 
C 2227 -64 2829 563 2829 1356 
z
M 1504 339 
C 1050 339 659 710 659 1407 
C 659 2150 1114 2425 1498 2425 
C 1914 2425 2342 2124 2342 1407 
C 2342 684 1926 339 1504 339 
z
" transform="scale(0.015625)"/>
       <path id="CMSS17-5b" d="M 1613 -1600 
L 1613 -1210 
L 1062 -1210 
L 1062 4409 
L 1613 4409 
L 1613 4800 
L 595 4800 
L 595 -1600 
L 1613 -1600 
z
" transform="scale(0.015625)"/>
       <path id="CMSS17-73" d="M 2061 2623 
C 1683 2803 1389 2816 1197 2816 
C 742 2816 198 2655 198 2009 
C 198 1363 902 1222 1094 1183 
C 1389 1126 1715 1062 1715 742 
C 1715 339 1254 339 1171 339 
C 915 339 563 409 243 639 
L 166 211 
C 531 0 883 -64 1178 -64 
C 1965 -64 2163 416 2163 780 
C 2163 1094 1984 1305 1862 1401 
C 1651 1567 1574 1587 1050 1695 
C 960 1708 646 1779 646 2067 
C 646 2431 1050 2431 1139 2431 
C 1555 2431 1811 2303 1984 2207 
L 2061 2623 
z
" transform="scale(0.015625)"/>
       <path id="CMSS17-5d" d="M 1146 4800 
L 128 4800 
L 128 4409 
L 678 4409 
L 678 -1210 
L 128 -1210 
L 128 -1600 
L 1146 -1600 
L 1146 4800 
z
" transform="scale(0.015625)"/>
      </defs>
      <use xlink:href="#CMSS17-54" transform="scale(0.996264)"/>
      <use xlink:href="#CMSS17-69" transform="translate(63.819454 0) scale(0.996264)"/>
      <use xlink:href="#CMSS17-65" transform="translate(86.000177 0) scale(0.996264)"/>
      <use xlink:href="#CMSS17-6d" transform="translate(127.638999 0) scale(0.996264)"/>
      <use xlink:href="#CMSS17-70" transform="translate(201.868253 0) scale(0.996264)"/>
      <use xlink:href="#CMSS17-6f" transform="translate(252.675635 0) scale(0.996264)"/>
      <use xlink:href="#CMSS17-5b" transform="translate(330.748372 0) scale(0.996264)"/>
      <use xlink:href="#CMSS17-73" transform="translate(357.93381 0) scale(0.996264)"/>
      <use xlink:href="#CMSS17-5d" transform="translate(393.847352 0) scale(0.996264)"/>
     </g>
    </g>
   </g>
   <g id="matplotlib.axis_2">
    <g id="ytick_1">
     <g id="line2d_11">
      <path d="M 45 120.283154 
L 324 120.283154 
" clip-path="url(#p5619cdd4c9)" style="fill: none; stroke: #b0b0b0; stroke-width: 0.8; stroke-linecap: square"/>
     </g>
     <g id="line2d_12">
      <defs>
       <path id="m7c84088a36" d="M 0 0 
L -3.5 0 
" style="stroke: #000000; stroke-width: 0.8"/>
      </defs>
      <g>
       <use xlink:href="#m7c84088a36" x="45" y="120.283154" style="stroke: #000000; stroke-width: 0.8"/>
      </g>
     </g>
     <g id="text_7">
      <!-- $\mathdefault{0}$ -->
      <g transform="translate(33.018665 123.742403) scale(0.1 -0.1)">
       <use xlink:href="#CMR17-30" transform="scale(0.996264)"/>
      </g>
     </g>
    </g>
    <g id="ytick_2">
     <g id="line2d_13">
      <path d="M 45 93.310197 
L 324 93.310197 
" clip-path="url(#p5619cdd4c9)" style="fill: none; stroke: #b0b0b0; stroke-width: 0.8; stroke-linecap: square"/>
     </g>
     <g id="line2d_14">
      <g>
       <use xlink:href="#m7c84088a36" x="45" y="93.310197" style="stroke: #000000; stroke-width: 0.8"/>
      </g>
     </g>
     <g id="text_8">
      <!-- $\mathdefault{500}$ -->
      <g transform="translate(23.055994 96.769446) scale(0.1 -0.1)">
       <defs>
        <path id="CMR17-35" d="M 730 3750 
C 794 3724 1056 3641 1325 3641 
C 1920 3641 2246 3961 2432 4140 
C 2432 4191 2432 4224 2394 4224 
C 2387 4224 2374 4224 2323 4198 
C 2099 4102 1837 4032 1517 4032 
C 1325 4032 1037 4055 723 4191 
C 653 4224 640 4224 634 4224 
C 602 4224 595 4217 595 4090 
L 595 2231 
C 595 2113 595 2080 659 2080 
C 691 2080 704 2093 736 2139 
C 941 2435 1222 2560 1542 2560 
C 1766 2560 2246 2415 2246 1293 
C 2246 1087 2246 716 2054 422 
C 1894 159 1645 25 1370 25 
C 947 25 518 319 403 812 
C 429 806 480 793 506 793 
C 589 793 749 838 749 1036 
C 749 1209 627 1280 506 1280 
C 358 1280 262 1190 262 1011 
C 262 454 704 -128 1382 -128 
C 2042 -128 2669 441 2669 1267 
C 2669 2054 2170 2662 1549 2662 
C 1222 2662 947 2540 730 2304 
L 730 3750 
z
" transform="scale(0.015625)"/>
       </defs>
       <use xlink:href="#CMR17-35" transform="scale(0.996264)"/>
       <use xlink:href="#CMR17-30" transform="translate(45.690477 0) scale(0.996264)"/>
       <use xlink:href="#CMR17-30" transform="translate(91.380954 0) scale(0.996264)"/>
      </g>
     </g>
    </g>
    <g id="ytick_3">
     <g id="line2d_15">
      <path d="M 45 66.33724 
L 324 66.33724 
" clip-path="url(#p5619cdd4c9)" style="fill: none; stroke: #b0b0b0; stroke-width: 0.8; stroke-linecap: square"/>
     </g>
     <g id="line2d_16">
      <g>
       <use xlink:href="#m7c84088a36" x="45" y="66.33724" style="stroke: #000000; stroke-width: 0.8"/>
      </g>
     </g>
     <g id="text_9">
      <!-- $\mathdefault{1000}$ -->
      <g transform="translate(18.074659 69.79649) scale(0.1 -0.1)">
       <use xlink:href="#CMR17-31" transform="scale(0.996264)"/>
       <use xlink:href="#CMR17-30" transform="translate(45.690477 0) scale(0.996264)"/>
       <use xlink:href="#CMR17-30" transform="translate(91.380954 0) scale(0.996264)"/>
       <use xlink:href="#CMR17-30" transform="translate(137.071431 0) scale(0.996264)"/>
      </g>
     </g>
    </g>
    <g id="ytick_4">
     <g id="line2d_17">
      <path d="M 45 39.364284 
L 324 39.364284 
" clip-path="url(#p5619cdd4c9)" style="fill: none; stroke: #b0b0b0; stroke-width: 0.8; stroke-linecap: square"/>
     </g>
     <g id="line2d_18">
      <g>
       <use xlink:href="#m7c84088a36" x="45" y="39.364284" style="stroke: #000000; stroke-width: 0.8"/>
      </g>
     </g>
     <g id="text_10">
      <!-- $\mathdefault{1500}$ -->
      <g transform="translate(18.074659 42.823533) scale(0.1 -0.1)">
       <use xlink:href="#CMR17-31" transform="scale(0.996264)"/>
       <use xlink:href="#CMR17-35" transform="translate(45.690477 0) scale(0.996264)"/>
       <use xlink:href="#CMR17-30" transform="translate(91.380954 0) scale(0.996264)"/>
       <use xlink:href="#CMR17-30" transform="translate(137.071431 0) scale(0.996264)"/>
      </g>
     </g>
    </g>
    <g id="text_11">
     <!-- Empuje [N] -->
     <g transform="translate(11.583999 96.408975) rotate(-90) scale(0.1 -0.1)">
      <defs>
       <path id="CMSS17-45" d="M 1958 435 
C 1446 435 1216 435 1101 428 
L 1101 2105 
L 3085 2105 
L 3085 2496 
L 1101 2496 
L 1101 3993 
L 1926 3993 
C 2003 3993 2080 3987 2157 3987 
L 3251 3987 
L 3251 4403 
L 563 4403 
L 563 0 
L 3334 0 
L 3334 441 
L 1958 435 
z
" transform="scale(0.015625)"/>
       <path id="CMSS17-75" d="M 2618 2752 
L 2131 2752 
L 2131 976 
C 2131 500 1786 307 1421 307 
C 998 307 960 448 960 712 
L 960 2752 
L 474 2752 
L 474 680 
C 474 179 646 -64 1088 -64 
C 1306 -64 1798 -13 2144 307 
L 2144 -13 
L 2618 -13 
L 2618 2752 
z
" transform="scale(0.015625)"/>
       <path id="CMSS17-6a" d="M 1114 4224 
L 576 4224 
L 576 3686 
L 1114 3686 
L 1114 4224 
z
M -371 -1063 
C -167 -1191 83 -1280 352 -1280 
C 755 -1280 1114 -935 1114 -368 
L 1114 2752 
L 640 2752 
L 640 -425 
C 640 -814 346 -871 179 -871 
C 38 -871 -128 -826 -275 -674 
L -371 -1063 
z
" transform="scale(0.015625)"/>
       <path id="CMSS17-4e" d="M 1466 4179 
L 1350 4416 
L 563 4416 
L 563 0 
L 1062 0 
L 1062 3925 
L 1069 3931 
C 1114 3817 1139 3759 1402 3193 
L 2771 236 
L 2886 0 
L 3674 0 
L 3674 4416 
L 3174 4416 
L 3174 490 
L 3168 484 
C 3123 598 3098 655 2835 1222 
L 1466 4179 
z
" transform="scale(0.015625)"/>
      </defs>
      <use xlink:href="#CMSS17-45" transform="scale(0.996264)"/>
      <use xlink:href="#CMSS17-6d" transform="translate(55.892013 0) scale(0.996264)"/>
      <use xlink:href="#CMSS17-70" transform="translate(130.121268 0) scale(0.996264)"/>
      <use xlink:href="#CMSS17-75" transform="translate(178.326211 0) scale(0.996264)"/>
      <use xlink:href="#CMSS17-6a" transform="translate(226.531154 0) scale(0.996264)"/>
      <use xlink:href="#CMSS17-65" transform="translate(251.31424 0) scale(0.996264)"/>
      <use xlink:href="#CMSS17-5b" transform="translate(324.182175 0) scale(0.996264)"/>
      <use xlink:href="#CMSS17-4e" transform="translate(351.367613 0) scale(0.996264)"/>
      <use xlink:href="#CMSS17-5d" transform="translate(417.429132 0) scale(0.996264)"/>
     </g>
    </g>
   </g>
   <g id="line2d_19">
    <path d="M 57.681818 26.341285 
L 57.783313 22.589835 
L 57.884808 25.329005 
L 57.986304 23.728544 
L 58.189294 28.978043 
L 59.204245 42.406787 
L 59.407236 44.389234 
L 60.625177 56.102998 
L 61.031158 59.269918 
L 62.756575 72.145205 
L 64.583488 82.322177 
L 65.293954 85.553971 
L 67.222362 94.18534 
L 67.425352 94.890524 
L 68.034323 97.126342 
L 69.150769 101.10608 
L 70.368711 104.684628 
L 70.673197 105.493136 
L 71.688148 108.039241 
L 73.31207 111.379378 
L 73.921041 112.500165 
L 74.428517 113.368013 
L 74.935993 114.29199 
L 77.676361 117.759938 
L 78.082342 118.095923 
L 78.589818 118.713466 
L 79.097293 119.238367 
L 79.604769 119.685784 
L 80.721216 120.590013 
L 81.431682 120.916847 
L 81.837662 121.111736 
L 82.142148 121.199262 
L 82.446633 121.339121 
L 82.649623 121.444219 
L 83.258594 121.817069 
L 83.56308 121.915497 
L 83.867565 122.023898 
L 84.578031 122.295746 
L 86.404944 122.76858 
L 86.810924 122.764289 
L 87.825876 122.964021 
L 88.231856 123.081168 
L 93.205118 123.028151 
L 93.611099 122.934361 
L 94.829041 122.784708 
L 95.336516 122.680903 
L 97.7724 122.358278 
L 98.279876 122.277597 
L 98.787351 122.225327 
L 100.005293 121.961019 
L 100.411274 121.949825 
L 101.629215 121.794395 
L 102.745662 121.572763 
L 103.456128 121.511038 
L 103.862108 121.472182 
L 104.471079 121.388237 
L 109.241351 120.329556 
L 110.459293 120.009018 
L 110.865273 119.899173 
L 112.692186 119.500258 
L 113.098167 119.454286 
L 114.113118 119.300857 
L 114.722089 119.193619 
L 117.157972 118.799895 
L 117.969933 118.616324 
L 118.781895 118.528069 
L 119.187875 118.478521 
L 123.552166 117.923646 
L 124.364127 117.800972 
L 127.104496 117.414728 
L 130.352341 117.040328 
L 131.062807 116.953299 
L 131.468788 116.906686 
L 132.077758 116.772095 
L 133.2957 116.614285 
L 133.904671 116.57039 
L 135.021118 116.493996 
L 135.934574 116.374201 
L 137.457001 116.179134 
L 138.979428 116.054661 
L 139.892884 116.006056 
L 142.430263 115.696094 
L 143.039234 115.685466 
L 143.7497 115.60315 
L 146.084088 115.46602 
L 146.591564 115.44492 
L 148.316981 115.292338 
L 149.331933 115.211248 
L 150.346884 115.062766 
L 152.376787 114.867517 
L 166.078631 114.102575 
L 167.804049 114.017669 
L 168.514515 114.047567 
L 170.036942 113.96781 
L 170.544418 113.928366 
L 171.356379 113.90652 
L 172.269835 113.86014 
L 174.096748 113.849714 
L 184.144767 113.599548 
L 185.261214 113.567717 
L 188.915039 113.454643 
L 191.147932 113.458309 
L 194.598767 113.403894 
L 195.207738 113.403002 
L 197.136145 113.400784 
L 202.109407 113.290219 
L 203.631835 113.227325 
L 204.646786 113.285457 
L 222.611426 113.121939 
L 224.539834 113.143 
L 225.351795 113.16885 
L 226.265252 113.159305 
L 228.39665 113.114619 
L 230.426552 113.113158 
L 231.137018 113.112357 
L 233.268416 113.091372 
L 234.486358 113.101479 
L 235.602805 113.048682 
L 237.531212 113.047863 
L 249.406144 113.040879 
L 250.218105 113.044421 
L 251.639037 113.09023 
L 253.46595 113.059215 
L 256.003329 113.049767 
L 259.454163 113.004609 
L 260.469115 113.004857 
L 261.687057 112.999624 
L 262.702008 113.010783 
L 263.71696 113.042214 
L 266.761814 113.050514 
L 274.678435 112.96845 
L 275.794882 112.998596 
L 279.042726 113.045197 
L 280.768144 112.977919 
L 283.407017 112.965967 
L 284.929445 112.949605 
L 288.684765 112.940308 
L 290.105697 112.942868 
L 292.237095 112.984362 
L 293.759522 112.982705 
L 296.702881 113.011024 
L 298.123813 112.999686 
L 301.067172 112.924961 
L 311.318182 112.948438 
L 311.318182 112.948438 
" clip-path="url(#p5619cdd4c9)" style="fill: none; stroke: #1f77b4; stroke-width: 1.5; stroke-linecap: square"/>
   </g>
   <g id="line2d_20">
    <path d="M 57.681818 26.103876 
L 57.783313 22.32 
L 57.884808 24.956689 
L 57.986304 23.387839 
L 58.189294 28.679861 
L 59.204245 42.309506 
L 59.407236 44.279006 
L 60.625177 56.014398 
L 61.031158 59.207211 
L 62.959566 73.383988 
L 65.699935 87.611017 
L 67.628342 95.822336 
L 69.861235 103.249648 
L 70.977682 106.403797 
L 73.10908 111.064977 
L 73.515061 111.899465 
L 73.921041 112.592436 
L 74.530012 113.691819 
L 75.138983 114.64679 
L 75.747954 115.44029 
L 75.950944 115.687016 
L 76.66141 116.667202 
L 77.473371 117.58254 
L 77.777857 117.889429 
L 78.082342 118.152902 
L 78.589818 118.763494 
L 79.097293 119.27577 
L 79.604769 119.721104 
L 80.721216 120.614502 
L 81.431682 120.928265 
L 81.837662 121.122625 
L 82.142148 121.208284 
L 82.446633 121.344979 
L 82.649623 121.447156 
L 83.360089 121.817076 
L 84.273546 122.212528 
L 87.216905 122.858442 
L 87.622886 122.923758 
L 88.028866 123.03843 
L 88.840827 123.038391 
L 90.46475 123.015263 
L 90.769235 123.091327 
L 92.697643 123.075644 
L 93.103623 123.037496 
L 94.727546 122.770381 
L 95.438012 122.65594 
L 95.843992 122.571715 
L 96.351468 122.602129 
L 96.858944 122.562732 
L 97.56941 122.438346 
L 98.584361 122.229647 
L 99.802303 121.968702 
L 100.309778 121.931338 
L 101.223235 121.8479 
L 101.52772 121.777168 
L 101.933701 121.717132 
L 102.644167 121.566574 
L 107.718924 120.68753 
L 108.2264 120.602903 
L 113.504147 119.394474 
L 122.43572 118.101076 
L 123.958147 117.847849 
L 124.567118 117.746272 
L 125.785059 117.574929 
L 126.495525 117.512216 
L 127.713467 117.349988 
L 130.961312 116.967111 
L 133.397195 116.584926 
L 134.107661 116.539051 
L 144.257176 115.614943 
L 145.475117 115.540816 
L 146.693059 115.43907 
L 147.200535 115.382753 
L 149.940904 115.115639 
L 152.681273 114.847416 
L 153.188748 114.842923 
L 154.812671 114.824789 
L 158.872476 114.50169 
L 160.090418 114.435581 
L 163.439758 114.309708 
L 164.454709 114.221471 
L 165.165175 114.183102 
L 166.383117 114.109267 
L 169.021991 114.004898 
L 170.544418 113.921892 
L 171.356379 113.900137 
L 172.269835 113.850647 
L 174.096748 113.845334 
L 179.780476 113.678146 
L 180.186456 113.667813 
L 181.810379 113.664913 
L 183.129816 113.602344 
L 189.219524 113.428895 
L 190.335971 113.424572 
L 190.944942 113.447658 
L 195.410728 113.382413 
L 196.527175 113.376608 
L 200.58698 113.356619 
L 201.703427 113.29308 
L 203.73333 113.241498 
L 204.849776 113.277842 
L 205.458747 113.2855 
L 206.372203 113.260339 
L 207.387155 113.227075 
L 209.721543 113.133055 
L 213.070883 113.108421 
L 214.187329 113.107818 
L 214.7963 113.106359 
L 225.351795 113.166172 
L 226.265252 113.156634 
L 228.701135 113.114839 
L 229.411601 113.105326 
L 235.399814 113.056978 
L 236.211776 113.03922 
L 239.45962 113.00544 
L 240.474572 113.00741 
L 246.056805 113.056099 
L 246.767271 113.044917 
L 249.304649 113.030868 
L 251.233057 113.081209 
L 252.755484 113.071496 
L 253.770435 113.055629 
L 257.119775 113.042244 
L 258.134727 113.00985 
L 258.946688 112.994146 
L 261.382571 112.97202 
L 269.806668 113.009745 
L 271.735076 112.926404 
L 272.445542 112.959111 
L 289.293736 112.935014 
L 291.729619 112.953758 
L 292.744571 112.972159 
L 293.962512 112.98121 
L 295.383444 112.996437 
L 297.920823 113.005075 
L 300.458201 112.927004 
L 311.318182 112.946468 
L 311.318182 112.946468 
" clip-path="url(#p5619cdd4c9)" style="fill: none; stroke: #ff7f0e; stroke-width: 1.5; stroke-linecap: square"/>
   </g>
   <g id="patch_3">
    <path d="M 45 128.16 
L 45 17.28 
" style="fill: none; stroke: #000000; stroke-width: 0.8; stroke-linejoin: miter; stroke-linecap: square"/>
   </g>
   <g id="patch_4">
    <path d="M 324 128.16 
L 324 17.28 
" style="fill: none; stroke: #000000; stroke-width: 0.8; stroke-linejoin: miter; stroke-linecap: square"/>
   </g>
   <g id="patch_5">
    <path d="M 45 128.16 
L 324 128.16 
" style="fill: none; stroke: #000000; stroke-width: 0.8; stroke-linejoin: miter; stroke-linecap: square"/>
   </g>
   <g id="patch_6">
    <path d="M 45 17.28 
L 324 17.28 
" style="fill: none; stroke: #000000; stroke-width: 0.8; stroke-linejoin: miter; stroke-linecap: square"/>
   </g>
   <g id="legend_1">
    <g id="patch_7">
     <path d="M 275.206845 53.154357 
L 317 53.154357 
Q 319 53.154357 319 51.154357 
L 319 24.28 
Q 319 22.28 317 22.28 
L 275.206845 22.28 
Q 273.206845 22.28 273.206845 24.28 
L 273.206845 51.154357 
Q 273.206845 53.154357 275.206845 53.154357 
z
" style="fill: #ffffff; opacity: 0.8; stroke: #cccccc; stroke-linejoin: miter"/>
    </g>
    <g id="line2d_21">
     <path d="M 277.206845 29.78 
L 287.206845 29.78 
L 297.206845 29.78 
" style="fill: none; stroke: #1f77b4; stroke-width: 1.5; stroke-linecap: square"/>
    </g>
    <g id="text_12">
     <!-- $T_1$ -->
     <g transform="translate(305.206845 33.28) scale(0.1 -0.1)">
      <defs>
       <path id="CMMI12-54" d="M 2669 3886 
C 2707 4038 2720 4096 2816 4121 
C 2867 4134 3078 4134 3213 4134 
C 3853 4134 4154 4109 4154 3612 
C 4154 3516 4128 3274 4090 3038 
L 4083 2962 
C 4083 2937 4109 2898 4147 2898 
C 4211 2898 4211 2930 4230 3032 
L 4416 4159 
C 4429 4217 4429 4230 4429 4249 
C 4429 4319 4390 4319 4262 4319 
L 762 4319 
C 614 4319 608 4313 570 4198 
L 179 3051 
C 173 3038 154 2968 154 2962 
C 154 2930 179 2898 218 2898 
C 269 2898 282 2924 307 3007 
C 576 3777 710 4134 1562 4134 
L 1990 4134 
C 2144 4134 2208 4134 2208 4064 
C 2208 4045 2208 4032 2176 3917 
L 1318 497 
C 1254 249 1242 185 563 185 
C 403 185 358 185 358 64 
C 358 0 429 0 461 0 
C 621 0 787 12 947 12 
L 1946 12 
C 2106 12 2278 0 2438 0 
C 2509 0 2573 0 2573 121 
C 2573 185 2528 185 2362 185 
C 1786 185 1786 242 1786 338 
C 1786 344 1786 389 1811 491 
L 2669 3886 
z
" transform="scale(0.015625)"/>
      </defs>
      <use xlink:href="#CMMI12-54" transform="scale(0.996264)"/>
      <use xlink:href="#CMR17-31" transform="translate(57.175044 -14.943915) scale(0.697382)"/>
     </g>
    </g>
    <g id="line2d_22">
     <path d="M 277.206845 43.717178 
L 287.206845 43.717178 
L 297.206845 43.717178 
" style="fill: none; stroke: #ff7f0e; stroke-width: 1.5; stroke-linecap: square"/>
    </g>
    <g id="text_13">
     <!-- $T_2$ -->
     <g transform="translate(305.206845 47.217178) scale(0.1 -0.1)">
      <use xlink:href="#CMMI12-54" transform="scale(0.996264)"/>
      <use xlink:href="#CMR17-32" transform="translate(57.175044 -14.943915) scale(0.697382)"/>
     </g>
    </g>
   </g>
  </g>
 </g>
 <defs>
  <clipPath id="p5619cdd4c9">
   <rect x="45" y="17.28" width="279" height="110.88"/>
  </clipPath>
 </defs>
</svg>
