<?xml version="1.0" encoding="utf-8" standalone="no"?>
<!DOCTYPE svg PUBLIC "-//W3C//DTD SVG 1.1//EN"
  "http://www.w3.org/Graphics/SVG/1.1/DTD/svg11.dtd">
<svg xmlns:xlink="http://www.w3.org/1999/xlink" width="360pt" height="144pt" viewBox="0 0 360 144" xmlns="http://www.w3.org/2000/svg" version="1.1">
 <metadata>
  <rdf:RDF xmlns:dc="http://purl.org/dc/elements/1.1/" xmlns:cc="http://creativecommons.org/ns#" xmlns:rdf="http://www.w3.org/1999/02/22-rdf-syntax-ns#">
   <cc:Work>
    <dc:type rdf:resource="http://purl.org/dc/dcmitype/StillImage"/>
    <dc:date>2023-07-07T00:09:34.537038</dc:date>
    <dc:format>image/svg+xml</dc:format>
    <dc:creator>
     <cc:Agent>
      <dc:title>Matplotlib v3.7.1, https://matplotlib.org/</dc:title>
     </cc:Agent>
    </dc:creator>
   </cc:Work>
  </rdf:RDF>
 </metadata>
 <defs>
  <style type="text/css">*{stroke-linejoin: round; stroke-linecap: butt}</style>
 </defs>
 <g id="figure_1">
  <g id="patch_1">
   <path d="M 0 144 
L 360 144 
L 360 0 
L 0 0 
z
" style="fill: #ffffff"/>
  </g>
  <g id="axes_1">
   <g id="patch_2">
    <path d="M 45 128.16 
L 324 128.16 
L 324 17.28 
L 45 17.28 
z
" style="fill: #ffffff"/>
   </g>
   <g id="matplotlib.axis_1">
    <g id="xtick_1">
     <g id="line2d_1">
      <path d="M 57.681818 128.16 
L 57.681818 17.28 
" clip-path="url(#p1d9efc7597)" style="fill: none; stroke: #b0b0b0; stroke-width: 0.8; stroke-linecap: square"/>
     </g>
     <g id="line2d_2">
      <defs>
       <path id="m6e3d84f3b9" d="M 0 0 
L 0 3.5 
" style="stroke: #000000; stroke-width: 0.8"/>
      </defs>
      <g>
       <use xlink:href="#m6e3d84f3b9" x="57.681818" y="128.16" style="stroke: #000000; stroke-width: 0.8"/>
      </g>
     </g>
     <g id="text_1">
      <!-- $\mathdefault{0}$ -->
      <g transform="translate(55.191151 142.078498) scale(0.1 -0.1)">
       <defs>
        <path id="CMR17-30" d="M 2688 2038 
C 2688 2430 2682 3099 2413 3613 
C 2176 4063 1798 4224 1466 4224 
C 1158 4224 768 4082 525 3620 
C 269 3137 243 2539 243 2038 
C 243 1671 250 1112 448 623 
C 723 -39 1216 -128 1466 -128 
C 1760 -128 2208 -7 2470 604 
C 2662 1048 2688 1568 2688 2038 
z
M 1466 -26 
C 1056 -26 813 328 723 816 
C 653 1196 653 1749 653 2109 
C 653 2604 653 3015 736 3407 
C 858 3954 1216 4121 1466 4121 
C 1728 4121 2067 3947 2189 3420 
C 2272 3054 2278 2623 2278 2109 
C 2278 1691 2278 1176 2202 797 
C 2067 96 1690 -26 1466 -26 
z
" transform="scale(0.015625)"/>
       </defs>
       <use xlink:href="#CMR17-30" transform="scale(0.996264)"/>
      </g>
     </g>
    </g>
    <g id="xtick_2">
     <g id="line2d_3">
      <path d="M 118.578904 128.16 
L 118.578904 17.28 
" clip-path="url(#p1d9efc7597)" style="fill: none; stroke: #b0b0b0; stroke-width: 0.8; stroke-linecap: square"/>
     </g>
     <g id="line2d_4">
      <g>
       <use xlink:href="#m6e3d84f3b9" x="118.578904" y="128.16" style="stroke: #000000; stroke-width: 0.8"/>
      </g>
     </g>
     <g id="text_2">
      <!-- $\mathdefault{10}$ -->
      <g transform="translate(113.597569 142.078498) scale(0.1 -0.1)">
       <defs>
        <path id="CMR17-31" d="M 1702 4083 
C 1702 4217 1696 4224 1606 4224 
C 1357 3927 979 3833 621 3820 
C 602 3820 570 3820 563 3808 
C 557 3795 557 3782 557 3648 
C 755 3648 1088 3686 1344 3839 
L 1344 467 
C 1344 243 1331 166 781 166 
L 589 166 
L 589 0 
C 896 6 1216 12 1523 12 
C 1830 12 2150 6 2458 0 
L 2458 166 
L 2266 166 
C 1715 166 1702 236 1702 467 
L 1702 4083 
z
" transform="scale(0.015625)"/>
       </defs>
       <use xlink:href="#CMR17-31" transform="scale(0.996264)"/>
       <use xlink:href="#CMR17-30" transform="translate(45.690477 0) scale(0.996264)"/>
      </g>
     </g>
    </g>
    <g id="xtick_3">
     <g id="line2d_5">
      <path d="M 179.47599 128.16 
L 179.47599 17.28 
" clip-path="url(#p1d9efc7597)" style="fill: none; stroke: #b0b0b0; stroke-width: 0.8; stroke-linecap: square"/>
     </g>
     <g id="line2d_6">
      <g>
       <use xlink:href="#m6e3d84f3b9" x="179.47599" y="128.16" style="stroke: #000000; stroke-width: 0.8"/>
      </g>
     </g>
     <g id="text_3">
      <!-- $\mathdefault{20}$ -->
      <g transform="translate(174.494655 142.078498) scale(0.1 -0.1)">
       <defs>
        <path id="CMR17-32" d="M 2669 990 
L 2554 990 
C 2490 537 2438 460 2413 422 
C 2381 371 1920 371 1830 371 
L 602 371 
C 832 620 1280 1073 1824 1596 
C 2214 1966 2669 2400 2669 3033 
C 2669 3788 2067 4224 1395 4224 
C 691 4224 262 3603 262 3027 
C 262 2777 448 2745 525 2745 
C 589 2745 781 2783 781 3007 
C 781 3206 614 3264 525 3264 
C 486 3264 448 3257 422 3244 
C 544 3788 915 4057 1306 4057 
C 1862 4057 2227 3616 2227 3033 
C 2227 2477 1901 1998 1536 1583 
L 262 147 
L 262 0 
L 2515 0 
L 2669 990 
z
" transform="scale(0.015625)"/>
       </defs>
       <use xlink:href="#CMR17-32" transform="scale(0.996264)"/>
       <use xlink:href="#CMR17-30" transform="translate(45.690477 0) scale(0.996264)"/>
      </g>
     </g>
    </g>
    <g id="xtick_4">
     <g id="line2d_7">
      <path d="M 240.373077 128.16 
L 240.373077 17.28 
" clip-path="url(#p1d9efc7597)" style="fill: none; stroke: #b0b0b0; stroke-width: 0.8; stroke-linecap: square"/>
     </g>
     <g id="line2d_8">
      <g>
       <use xlink:href="#m6e3d84f3b9" x="240.373077" y="128.16" style="stroke: #000000; stroke-width: 0.8"/>
      </g>
     </g>
     <g id="text_4">
      <!-- $\mathdefault{30}$ -->
      <g transform="translate(235.391741 142.078498) scale(0.1 -0.1)">
       <defs>
        <path id="CMR17-33" d="M 1414 2176 
C 1984 2176 2234 1673 2234 1094 
C 2234 322 1824 25 1453 25 
C 1114 25 563 193 390 691 
C 422 678 454 678 486 678 
C 640 678 755 780 755 947 
C 755 1132 614 1216 486 1216 
C 378 1216 211 1164 211 927 
C 211 335 787 -128 1466 -128 
C 2176 -128 2720 432 2720 1087 
C 2720 1718 2208 2176 1600 2246 
C 2086 2347 2554 2776 2554 3353 
C 2554 3856 2048 4224 1472 4224 
C 890 4224 378 3862 378 3347 
C 378 3123 544 3084 627 3084 
C 762 3084 877 3167 877 3334 
C 877 3500 762 3584 627 3584 
C 602 3584 570 3584 544 3571 
C 730 3999 1235 4076 1459 4076 
C 1683 4076 2106 3966 2106 3347 
C 2106 3167 2080 2851 1862 2574 
C 1670 2329 1453 2316 1242 2297 
C 1210 2297 1062 2284 1037 2284 
C 992 2278 966 2272 966 2227 
C 966 2182 973 2176 1101 2176 
L 1414 2176 
z
" transform="scale(0.015625)"/>
       </defs>
       <use xlink:href="#CMR17-33" transform="scale(0.996264)"/>
       <use xlink:href="#CMR17-30" transform="translate(45.690477 0) scale(0.996264)"/>
      </g>
     </g>
    </g>
    <g id="xtick_5">
     <g id="line2d_9">
      <path d="M 301.270163 128.16 
L 301.270163 17.28 
" clip-path="url(#p1d9efc7597)" style="fill: none; stroke: #b0b0b0; stroke-width: 0.8; stroke-linecap: square"/>
     </g>
     <g id="line2d_10">
      <g>
       <use xlink:href="#m6e3d84f3b9" x="301.270163" y="128.16" style="stroke: #000000; stroke-width: 0.8"/>
      </g>
     </g>
     <g id="text_5">
      <!-- $\mathdefault{40}$ -->
      <g transform="translate(296.288827 142.078498) scale(0.1 -0.1)">
       <defs>
        <path id="CMR17-34" d="M 2150 4147 
C 2150 4281 2144 4288 2029 4288 
L 128 1254 
L 128 1088 
L 1779 1088 
L 1779 460 
C 1779 230 1766 166 1318 166 
L 1197 166 
L 1197 0 
C 1402 12 1747 12 1965 12 
C 2182 12 2528 12 2733 0 
L 2733 166 
L 2611 166 
C 2163 166 2150 230 2150 460 
L 2150 1088 
L 2803 1088 
L 2803 1254 
L 2150 1254 
L 2150 4147 
z
M 1798 3723 
L 1798 1254 
L 256 1254 
L 1798 3723 
z
" transform="scale(0.015625)"/>
       </defs>
       <use xlink:href="#CMR17-34" transform="scale(0.996264)"/>
       <use xlink:href="#CMR17-30" transform="translate(45.690477 0) scale(0.996264)"/>
      </g>
     </g>
    </g>
    <g id="text_6">
     <!-- Tiempo [s] -->
     <g transform="translate(162.097878 155.487657) scale(0.1 -0.1)">
      <defs>
       <path id="CMSS17-54" d="M 2317 3987 
L 2848 3987 
C 2925 3987 3002 3980 3078 3980 
L 3878 3980 
L 3878 4396 
L 218 4396 
L 218 3980 
L 1018 3980 
C 1094 3980 1171 3987 1248 3987 
L 1779 3987 
L 1779 0 
L 2317 0 
L 2317 3987 
z
" transform="scale(0.015625)"/>
       <path id="CMSS17-69" d="M 979 4224 
L 442 4224 
L 442 3686 
L 979 3686 
L 979 4224 
z
M 947 2752 
L 474 2752 
L 474 0 
L 947 0 
L 947 2752 
z
" transform="scale(0.015625)"/>
       <path id="CMSS17-65" d="M 2502 1375 
C 2502 1587 2490 2001 2285 2347 
C 2061 2713 1696 2816 1421 2816 
C 755 2816 192 2184 192 1363 
C 192 579 774 -64 1510 -64 
C 1798 -64 2150 19 2470 249 
C 2470 275 2458 414 2451 421 
C 2451 433 2432 629 2432 655 
C 2125 408 1773 326 1517 326 
C 1107 326 666 667 646 1375 
L 2502 1375 
z
M 698 1728 
C 781 2086 1062 2425 1421 2425 
C 1517 2425 1965 2412 2080 1728 
L 698 1728 
z
" transform="scale(0.015625)"/>
       <path id="CMSS17-6d" d="M 4288 1878 
C 4288 2309 4179 2816 3462 2816 
C 2982 2816 2694 2515 2566 2328 
C 2451 2668 2182 2816 1798 2816 
C 1363 2816 1088 2566 941 2386 
L 941 2783 
L 474 2783 
L 474 0 
L 960 0 
L 960 1556 
C 960 1936 1101 2425 1555 2425 
C 2138 2425 2138 2013 2138 1826 
L 2138 0 
L 2624 0 
L 2624 1556 
C 2624 1936 2765 2425 3219 2425 
C 3802 2425 3802 2013 3802 1826 
L 3802 0 
L 4288 0 
L 4288 1878 
z
" transform="scale(0.015625)"/>
       <path id="CMSS17-70" d="M 966 275 
C 1178 70 1466 -64 1773 -64 
C 2368 -64 2880 553 2880 1382 
C 2880 2147 2496 2816 1946 2816 
C 1626 2816 1242 2700 954 2470 
L 954 2764 
L 480 2764 
L 480 -1280 
L 966 -1280 
L 966 275 
z
M 966 2088 
C 1018 2166 1235 2412 1587 2412 
C 2035 2412 2394 1946 2394 1382 
C 2394 741 1958 326 1530 326 
C 1402 326 1267 358 1139 468 
C 966 624 966 721 966 812 
L 966 2088 
z
" transform="scale(0.015625)"/>
       <path id="CMSS17-6f" d="M 2829 1356 
C 2829 2175 2221 2816 1504 2816 
C 768 2816 173 2156 173 1356 
C 173 544 787 -64 1498 -64 
C 2227 -64 2829 563 2829 1356 
z
M 1504 339 
C 1050 339 659 710 659 1407 
C 659 2150 1114 2425 1498 2425 
C 1914 2425 2342 2124 2342 1407 
C 2342 684 1926 339 1504 339 
z
" transform="scale(0.015625)"/>
       <path id="CMSS17-5b" d="M 1613 -1600 
L 1613 -1210 
L 1062 -1210 
L 1062 4409 
L 1613 4409 
L 1613 4800 
L 595 4800 
L 595 -1600 
L 1613 -1600 
z
" transform="scale(0.015625)"/>
       <path id="CMSS17-73" d="M 2061 2623 
C 1683 2803 1389 2816 1197 2816 
C 742 2816 198 2655 198 2009 
C 198 1363 902 1222 1094 1183 
C 1389 1126 1715 1062 1715 742 
C 1715 339 1254 339 1171 339 
C 915 339 563 409 243 639 
L 166 211 
C 531 0 883 -64 1178 -64 
C 1965 -64 2163 416 2163 780 
C 2163 1094 1984 1305 1862 1401 
C 1651 1567 1574 1587 1050 1695 
C 960 1708 646 1779 646 2067 
C 646 2431 1050 2431 1139 2431 
C 1555 2431 1811 2303 1984 2207 
L 2061 2623 
z
" transform="scale(0.015625)"/>
       <path id="CMSS17-5d" d="M 1146 4800 
L 128 4800 
L 128 4409 
L 678 4409 
L 678 -1210 
L 128 -1210 
L 128 -1600 
L 1146 -1600 
L 1146 4800 
z
" transform="scale(0.015625)"/>
      </defs>
      <use xlink:href="#CMSS17-54" transform="scale(0.996264)"/>
      <use xlink:href="#CMSS17-69" transform="translate(63.819454 0) scale(0.996264)"/>
      <use xlink:href="#CMSS17-65" transform="translate(86.000177 0) scale(0.996264)"/>
      <use xlink:href="#CMSS17-6d" transform="translate(127.638999 0) scale(0.996264)"/>
      <use xlink:href="#CMSS17-70" transform="translate(201.868253 0) scale(0.996264)"/>
      <use xlink:href="#CMSS17-6f" transform="translate(252.675635 0) scale(0.996264)"/>
      <use xlink:href="#CMSS17-5b" transform="translate(330.748372 0) scale(0.996264)"/>
      <use xlink:href="#CMSS17-73" transform="translate(357.93381 0) scale(0.996264)"/>
      <use xlink:href="#CMSS17-5d" transform="translate(393.847352 0) scale(0.996264)"/>
     </g>
    </g>
   </g>
   <g id="matplotlib.axis_2">
    <g id="ytick_1">
     <g id="line2d_11">
      <path d="M 45 123.295707 
L 324 123.295707 
" clip-path="url(#p1d9efc7597)" style="fill: none; stroke: #b0b0b0; stroke-width: 0.8; stroke-linecap: square"/>
     </g>
     <g id="line2d_12">
      <defs>
       <path id="m54cd6b854b" d="M 0 0 
L -3.5 0 
" style="stroke: #000000; stroke-width: 0.8"/>
      </defs>
      <g>
       <use xlink:href="#m54cd6b854b" x="45" y="123.295707" style="stroke: #000000; stroke-width: 0.8"/>
      </g>
     </g>
     <g id="text_7">
      <!-- $\mathdefault{0}$ -->
      <g transform="translate(33.018665 126.754956) scale(0.1 -0.1)">
       <use xlink:href="#CMR17-30" transform="scale(0.996264)"/>
      </g>
     </g>
    </g>
    <g id="ytick_2">
     <g id="line2d_13">
      <path d="M 45 98.810591 
L 324 98.810591 
" clip-path="url(#p1d9efc7597)" style="fill: none; stroke: #b0b0b0; stroke-width: 0.8; stroke-linecap: square"/>
     </g>
     <g id="line2d_14">
      <g>
       <use xlink:href="#m54cd6b854b" x="45" y="98.810591" style="stroke: #000000; stroke-width: 0.8"/>
      </g>
     </g>
     <g id="text_8">
      <!-- $\mathdefault{250}$ -->
      <g transform="translate(23.055994 102.26984) scale(0.1 -0.1)">
       <defs>
        <path id="CMR17-35" d="M 730 3750 
C 794 3724 1056 3641 1325 3641 
C 1920 3641 2246 3961 2432 4140 
C 2432 4191 2432 4224 2394 4224 
C 2387 4224 2374 4224 2323 4198 
C 2099 4102 1837 4032 1517 4032 
C 1325 4032 1037 4055 723 4191 
C 653 4224 640 4224 634 4224 
C 602 4224 595 4217 595 4090 
L 595 2231 
C 595 2113 595 2080 659 2080 
C 691 2080 704 2093 736 2139 
C 941 2435 1222 2560 1542 2560 
C 1766 2560 2246 2415 2246 1293 
C 2246 1087 2246 716 2054 422 
C 1894 159 1645 25 1370 25 
C 947 25 518 319 403 812 
C 429 806 480 793 506 793 
C 589 793 749 838 749 1036 
C 749 1209 627 1280 506 1280 
C 358 1280 262 1190 262 1011 
C 262 454 704 -128 1382 -128 
C 2042 -128 2669 441 2669 1267 
C 2669 2054 2170 2662 1549 2662 
C 1222 2662 947 2540 730 2304 
L 730 3750 
z
" transform="scale(0.015625)"/>
       </defs>
       <use xlink:href="#CMR17-32" transform="scale(0.996264)"/>
       <use xlink:href="#CMR17-35" transform="translate(45.690477 0) scale(0.996264)"/>
       <use xlink:href="#CMR17-30" transform="translate(91.380954 0) scale(0.996264)"/>
      </g>
     </g>
    </g>
    <g id="ytick_3">
     <g id="line2d_15">
      <path d="M 45 74.325475 
L 324 74.325475 
" clip-path="url(#p1d9efc7597)" style="fill: none; stroke: #b0b0b0; stroke-width: 0.8; stroke-linecap: square"/>
     </g>
     <g id="line2d_16">
      <g>
       <use xlink:href="#m54cd6b854b" x="45" y="74.325475" style="stroke: #000000; stroke-width: 0.8"/>
      </g>
     </g>
     <g id="text_9">
      <!-- $\mathdefault{500}$ -->
      <g transform="translate(23.055994 77.784724) scale(0.1 -0.1)">
       <use xlink:href="#CMR17-35" transform="scale(0.996264)"/>
       <use xlink:href="#CMR17-30" transform="translate(45.690477 0) scale(0.996264)"/>
       <use xlink:href="#CMR17-30" transform="translate(91.380954 0) scale(0.996264)"/>
      </g>
     </g>
    </g>
    <g id="ytick_4">
     <g id="line2d_17">
      <path d="M 45 49.840359 
L 324 49.840359 
" clip-path="url(#p1d9efc7597)" style="fill: none; stroke: #b0b0b0; stroke-width: 0.8; stroke-linecap: square"/>
     </g>
     <g id="line2d_18">
      <g>
       <use xlink:href="#m54cd6b854b" x="45" y="49.840359" style="stroke: #000000; stroke-width: 0.8"/>
      </g>
     </g>
     <g id="text_10">
      <!-- $\mathdefault{750}$ -->
      <g transform="translate(23.055994 53.299608) scale(0.1 -0.1)">
       <defs>
        <path id="CMR17-37" d="M 2886 3955 
L 2886 4096 
L 1382 4096 
C 634 4096 621 4166 595 4288 
L 480 4288 
L 294 3104 
L 410 3104 
C 429 3226 474 3552 550 3673 
C 589 3724 1062 3724 1171 3724 
L 2579 3724 
L 1869 2670 
C 1395 1961 1069 1003 1069 166 
C 1069 89 1069 -128 1299 -128 
C 1530 -128 1530 89 1530 172 
L 1530 466 
C 1530 1514 1709 2204 2003 2644 
L 2886 3955 
z
" transform="scale(0.015625)"/>
       </defs>
       <use xlink:href="#CMR17-37" transform="scale(0.996264)"/>
       <use xlink:href="#CMR17-35" transform="translate(45.690477 0) scale(0.996264)"/>
       <use xlink:href="#CMR17-30" transform="translate(91.380954 0) scale(0.996264)"/>
      </g>
     </g>
    </g>
    <g id="ytick_5">
     <g id="line2d_19">
      <path d="M 45 25.355243 
L 324 25.355243 
" clip-path="url(#p1d9efc7597)" style="fill: none; stroke: #b0b0b0; stroke-width: 0.8; stroke-linecap: square"/>
     </g>
     <g id="line2d_20">
      <g>
       <use xlink:href="#m54cd6b854b" x="45" y="25.355243" style="stroke: #000000; stroke-width: 0.8"/>
      </g>
     </g>
     <g id="text_11">
      <!-- $\mathdefault{1000}$ -->
      <g transform="translate(18.074659 28.814492) scale(0.1 -0.1)">
       <use xlink:href="#CMR17-31" transform="scale(0.996264)"/>
       <use xlink:href="#CMR17-30" transform="translate(45.690477 0) scale(0.996264)"/>
       <use xlink:href="#CMR17-30" transform="translate(91.380954 0) scale(0.996264)"/>
       <use xlink:href="#CMR17-30" transform="translate(137.071431 0) scale(0.996264)"/>
      </g>
     </g>
    </g>
    <g id="text_12">
     <!-- Posición [m] -->
     <g transform="translate(11.583999 98.318464) rotate(-90) scale(0.1 -0.1)">
      <defs>
       <path id="CMSS17-50" d="M 2106 1856 
C 2874 1856 3501 2447 3501 3139 
C 3501 3818 2899 4416 2067 4416 
L 570 4416 
L 570 0 
L 1107 0 
L 1107 1856 
L 2106 1856 
z
M 1926 4057 
C 2669 4057 2995 3598 2995 3139 
C 2995 2711 2694 2227 1926 2227 
L 1094 2227 
L 1094 4057 
L 1926 4057 
z
" transform="scale(0.015625)"/>
       <path id="CMSS17-63" d="M 2464 2540 
C 2464 2585 2170 2713 2093 2739 
C 1882 2816 1613 2816 1542 2816 
C 710 2816 211 2092 211 1363 
C 211 595 768 -64 1517 -64 
C 1946 -64 2253 76 2502 243 
L 2464 665 
C 2189 454 1869 339 1523 339 
C 1024 339 698 774 698 1369 
C 698 1830 909 2412 1549 2412 
C 1901 2412 2099 2342 2394 2143 
L 2464 2540 
z
" transform="scale(0.015625)"/>
       <path id="CMSS17-13" d="M 2502 4416 
L 2016 4416 
L 1222 3321 
L 1613 3321 
L 2502 4416 
z
" transform="scale(0.015625)"/>
       <path id="CMSS17-6e" d="M 2618 1878 
C 2618 2283 2522 2816 1798 2816 
C 1389 2816 1120 2604 941 2386 
L 941 2783 
L 474 2783 
L 474 0 
L 960 0 
L 960 1556 
C 960 1962 1114 2425 1549 2425 
C 2112 2425 2131 2045 2131 1826 
L 2131 0 
L 2618 0 
L 2618 1878 
z
" transform="scale(0.015625)"/>
      </defs>
      <use xlink:href="#CMSS17-50" transform="scale(0.996264)"/>
      <use xlink:href="#CMSS17-6f" transform="translate(57.133132 0) scale(0.996264)"/>
      <use xlink:href="#CMSS17-73" transform="translate(103.976756 0) scale(0.996264)"/>
      <use xlink:href="#CMSS17-69" transform="translate(139.890298 0) scale(0.996264)"/>
      <use xlink:href="#CMSS17-63" transform="translate(162.071021 0) scale(0.996264)"/>
      <use xlink:href="#CMSS17-69" transform="translate(203.709843 0) scale(0.996264)"/>
      <use xlink:href="#CMSS17-13" transform="translate(225.890566 0) scale(0.996264)"/>
      <use xlink:href="#CMSS17-6f" transform="translate(225.890566 0) scale(0.996264)"/>
      <use xlink:href="#CMSS17-6e" transform="translate(272.73419 0) scale(0.996264)"/>
      <use xlink:href="#CMSS17-5b" transform="translate(352.168245 0) scale(0.996264)"/>
      <use xlink:href="#CMSS17-6d" transform="translate(379.353684 0) scale(0.996264)"/>
      <use xlink:href="#CMSS17-5d" transform="translate(453.582938 0) scale(0.996264)"/>
     </g>
    </g>
   </g>
   <g id="line2d_21">
    <path d="M 57.681818 99.33207 
L 57.884808 103.260432 
L 57.986304 103.588043 
L 58.189294 102.894206 
L 58.290789 103.87094 
L 58.392284 103.834121 
L 58.493779 104.450111 
L 58.69677 104.299988 
L 58.89976 102.967057 
L 59.204245 103.762772 
L 59.407236 103.165212 
L 59.610226 103.242409 
L 59.813216 103.192612 
L 60.117702 103.66626 
L 60.219197 103.488531 
L 60.320692 103.703597 
L 60.929663 103.0228 
L 61.132653 103.198634 
L 61.437138 103.224177 
L 62.2491 103.300074 
L 62.350595 103.402141 
L 62.553585 103.184763 
L 63.568537 103.059333 
L 63.670032 102.979018 
L 64.279003 103.320566 
L 64.481993 103.269723 
L 64.684983 103.30955 
L 65.090964 103.065708 
L 65.395449 103.175087 
L 65.496944 103.114132 
L 66.00442 103.34336 
L 66.105915 103.265479 
L 66.613391 103.594478 
L 68.541799 103.485645 
L 68.846284 103.637761 
L 69.35376 103.649219 
L 70.673197 103.626831 
L 70.977682 103.6595 
L 71.383663 103.721003 
L 72.297119 103.695159 
L 72.500109 103.68207 
L 75.037488 103.890808 
L 75.443468 103.855906 
L 76.66141 104.017942 
L 76.8644 104.082229 
L 77.270381 104.165162 
L 77.879352 104.282005 
L 78.488323 104.394682 
L 79.198789 104.423981 
L 81.330187 104.74174 
L 83.055604 105.166887 
L 84.375041 105.371525 
L 84.984012 105.501083 
L 85.491488 105.634914 
L 85.897468 105.738322 
L 86.810924 105.844684 
L 87.216905 105.901076 
L 89.449798 106.101892 
L 89.855779 106.185908 
L 91.987177 106.428266 
L 92.697643 106.523538 
L 95.742497 106.940942 
L 96.046982 106.973173 
L 96.351468 107.002612 
L 97.264924 107.099185 
L 98.279876 107.241674 
L 99.700808 107.448389 
L 100.005293 107.467347 
L 101.629215 107.825182 
L 107.820419 108.89453 
L 108.42939 108.970383 
L 110.154807 109.197626 
L 110.662283 109.274907 
L 111.271254 109.369407 
L 118.984885 110.153073 
L 119.999836 110.289168 
L 121.522263 110.527248 
L 122.63871 110.711668 
L 123.044691 110.764741 
L 124.567118 110.92081 
L 127.104496 111.226162 
L 128.931409 111.442977 
L 129.74337 111.532676 
L 131.367292 111.695684 
L 133.397195 111.900777 
L 134.716632 112.037326 
L 135.934574 112.203608 
L 136.746535 112.305364 
L 138.471952 112.494558 
L 139.080923 112.605484 
L 140.501855 112.736385 
L 142.937739 113.020627 
L 143.54671 113.065657 
L 144.561661 113.251398 
L 146.185583 113.477236 
L 146.591564 113.524172 
L 147.200535 113.629419 
L 147.606515 113.674407 
L 148.621467 113.748378 
L 150.143894 113.952735 
L 154.508185 114.315673 
L 155.523137 114.443125 
L 156.030612 114.496797 
L 157.350049 114.638677 
L 157.654535 114.643987 
L 158.263505 114.734406 
L 164.353214 115.437951 
L 164.962185 115.471709 
L 166.180127 115.660884 
L 166.890593 115.749359 
L 170.950398 116.139041 
L 172.980301 116.445343 
L 174.299738 116.589146 
L 175.72067 116.720709 
L 178.055058 117.055613 
L 183.332806 117.588424 
L 184.753738 117.781623 
L 187.392612 118.100674 
L 190.437466 118.404331 
L 192.771854 118.595887 
L 193.989796 118.683168 
L 194.700262 118.728882 
L 200.282495 119.194848 
L 201.094456 119.291594 
L 207.387155 119.679842 
L 208.199116 119.760436 
L 210.736495 119.98158 
L 213.172378 120.134473 
L 214.085834 120.189709 
L 224.539834 120.733838 
L 225.757776 120.797971 
L 226.671232 120.817804 
L 228.193659 120.903311 
L 229.614591 120.962936 
L 230.426552 121.001978 
L 234.892339 121.116781 
L 235.298319 121.138178 
L 235.90729 121.140372 
L 237.531212 121.156982 
L 242.402979 121.27065 
L 243.01195 121.348435 
L 244.331387 121.365443 
L 249.507639 121.492657 
L 250.218105 121.473896 
L 251.537542 121.497155 
L 266.964804 122.073773 
L 267.776765 122.076785 
L 268.791717 122.069803 
L 275.287406 122.123241 
L 276.099367 122.14493 
L 278.433755 122.087706 
L 279.550202 122.134469 
L 280.768144 122.133018 
L 281.986085 122.122333 
L 282.899542 122.092941 
L 285.741406 122.225431 
L 286.248881 122.225469 
L 288.481775 122.221183 
L 290.004202 122.26957 
L 293.556532 122.341714 
L 294.165503 122.350805 
L 296.09391 122.340789 
L 297.616337 122.337522 
L 300.153716 122.30464 
L 301.168667 122.367138 
L 303.19857 122.336183 
L 303.604551 122.336341 
L 304.213522 122.290961 
L 304.923988 122.288097 
L 305.938939 122.276597 
L 311.318182 122.290405 
L 311.318182 122.290405 
" clip-path="url(#p1d9efc7597)" style="fill: none; stroke: #1f77b4; stroke-width: 1.5; stroke-linecap: square"/>
   </g>
   <g id="line2d_22">
    <path d="M 57.681818 22.32 
L 57.783313 22.555128 
L 58.087799 26.844494 
L 58.290789 26.453032 
L 58.493779 26.264296 
L 58.798265 24.930825 
L 58.89976 24.765194 
L 59.001255 25.364214 
L 59.10275 25.322562 
L 59.204245 24.868277 
L 59.711721 26.301732 
L 59.813216 26.237591 
L 60.016206 26.861422 
L 60.117702 26.77844 
L 60.422187 27.057235 
L 60.523682 26.909262 
L 60.726672 27.173193 
L 60.828168 27.147294 
L 60.929663 26.973479 
L 61.132653 27.296182 
L 61.234148 27.341872 
L 61.437138 28.118018 
L 61.538634 28.026909 
L 61.843119 28.495376 
L 62.046109 28.460899 
L 62.2491 28.776795 
L 62.553585 29.063058 
L 62.65508 29.034475 
L 62.959566 29.453746 
L 63.264051 29.905646 
L 63.365546 29.880816 
L 63.771527 30.37286 
L 63.873022 30.270246 
L 64.177507 30.765838 
L 64.380498 31.010766 
L 64.684983 31.523733 
L 66.613391 34.973059 
L 67.019371 35.416483 
L 69.049274 39.037552 
L 69.35376 39.521581 
L 70.774692 42.129011 
L 71.485158 43.444851 
L 75.646459 50.979088 
L 78.386827 55.912518 
L 79.807759 58.509004 
L 81.228691 60.882117 
L 81.736167 61.757649 
L 82.548128 63.247542 
L 84.273546 65.975314 
L 84.781021 66.793176 
L 88.130361 72.06063 
L 89.043818 73.467596 
L 91.479701 77.044903 
L 92.190167 78.026414 
L 92.596148 78.573947 
L 94.22007 80.752759 
L 95.032031 81.822816 
L 96.148478 83.243635 
L 99.903798 87.636757 
L 100.614264 88.364139 
L 105.486031 93.440583 
L 112.083215 99.229459 
L 116.447506 102.425644 
L 119.08638 104.112058 
L 120.101331 104.768252 
L 121.522263 105.540885 
L 123.349176 106.581568 
L 124.364127 107.119052 
L 125.176089 107.584888 
L 127.003001 108.488712 
L 128.017953 108.984936 
L 129.641875 109.745842 
L 130.149351 109.985241 
L 131.164302 110.425365 
L 133.194205 111.287698 
L 134.006166 111.617907 
L 135.528593 112.20179 
L 137.152516 112.827845 
L 142.125778 114.461838 
L 145.678108 115.442487 
L 147.09904 115.830772 
L 154.102205 117.375073 
L 157.553039 118.064025 
L 166.180127 119.427934 
L 170.544418 119.934081 
L 171.254884 120.02061 
L 173.487777 120.23232 
L 175.92366 120.490497 
L 177.040107 120.571745 
L 177.750573 120.632329 
L 183.434301 121.116384 
L 187.900087 121.296223 
L 188.712048 121.358107 
L 189.422514 121.409092 
L 190.13298 121.472299 
L 191.655408 121.519454 
L 192.873349 121.584864 
L 194.395776 121.675166 
L 196.83166 121.73976 
L 199.166048 121.861182 
L 201.804922 121.967058 
L 202.312398 121.959332 
L 203.73333 121.987354 
L 206.778184 122.062824 
L 208.402106 122.07543 
L 210.229019 122.122988 
L 211.142475 122.141898 
L 212.258922 122.154776 
L 213.679854 122.179481 
L 215.202281 122.256602 
L 217.029193 122.279424 
L 227.686184 122.51 
L 228.80263 122.574537 
L 259.149678 122.906296 
L 266.558824 122.9596 
L 268.081251 122.94708 
L 271.532086 122.939894 
L 276.708338 122.979785 
L 278.027775 122.963724 
L 279.550202 122.944336 
L 296.804376 123.007968 
L 297.920823 123.012161 
L 300.661192 123.023185 
L 311.318182 123.117504 
L 311.318182 123.117504 
" clip-path="url(#p1d9efc7597)" style="fill: none; stroke: #ff7f0e; stroke-width: 1.5; stroke-linecap: square"/>
   </g>
   <g id="patch_3">
    <path d="M 45 128.16 
L 45 17.28 
" style="fill: none; stroke: #000000; stroke-width: 0.8; stroke-linejoin: miter; stroke-linecap: square"/>
   </g>
   <g id="patch_4">
    <path d="M 324 128.16 
L 324 17.28 
" style="fill: none; stroke: #000000; stroke-width: 0.8; stroke-linejoin: miter; stroke-linecap: square"/>
   </g>
   <g id="patch_5">
    <path d="M 45 128.16 
L 324 128.16 
" style="fill: none; stroke: #000000; stroke-width: 0.8; stroke-linejoin: miter; stroke-linecap: square"/>
   </g>
   <g id="patch_6">
    <path d="M 45 17.28 
L 324 17.28 
" style="fill: none; stroke: #000000; stroke-width: 0.8; stroke-linejoin: miter; stroke-linecap: square"/>
   </g>
   <g id="legend_1">
    <g id="patch_7">
     <path d="M 267.959714 55.20528 
L 317 55.20528 
Q 319 55.20528 319 53.20528 
L 319 24.28 
Q 319 22.28 317 22.28 
L 267.959714 22.28 
Q 265.959714 22.28 265.959714 24.28 
L 265.959714 53.20528 
Q 265.959714 55.20528 267.959714 55.20528 
z
" style="fill: #ffffff; opacity: 0.8; stroke: #cccccc; stroke-linejoin: miter"/>
    </g>
    <g id="line2d_23">
     <path d="M 269.959714 30.25198 
L 279.959714 30.25198 
L 289.959714 30.25198 
" style="fill: none; stroke: #1f77b4; stroke-width: 1.5; stroke-linecap: square"/>
    </g>
    <g id="text_13">
     <!-- $x(t)$ -->
     <g transform="translate(297.959714 33.75198) scale(0.1 -0.1)">
      <defs>
       <path id="CMMI12-78" d="M 3034 2624 
C 2829 2585 2752 2431 2752 2310 
C 2752 2156 2874 2105 2963 2105 
C 3155 2105 3290 2271 3290 2444 
C 3290 2694 2982 2816 2714 2816 
C 2323 2816 2106 2451 2048 2329 
C 1901 2790 1504 2816 1389 2816 
C 736 2816 390 1993 390 1849 
C 390 1823 416 1790 461 1790 
C 512 1790 525 1829 538 1855 
C 755 2572 1184 2687 1370 2687 
C 1658 2687 1715 2438 1715 2284 
C 1715 2143 1677 1993 1600 1678 
L 1382 778 
C 1286 390 1101 64 762 64 
C 730 64 570 64 435 126 
C 666 166 717 358 717 435 
C 717 563 621 640 499 640 
C 346 640 179 505 179 300 
C 179 57 480 -64 755 -64 
C 1062 -64 1280 153 1414 415 
C 1517 64 1837 -64 2074 -64 
C 2726 -64 3072 751 3072 896 
C 3072 929 3046 955 3008 955 
C 2950 955 2944 922 2925 870 
C 2752 300 2381 64 2093 64 
C 1869 64 1747 204 1747 467 
C 1747 607 1773 712 1875 1146 
L 2099 2039 
C 2195 2425 2413 2687 2707 2687 
C 2720 2687 2899 2687 3034 2624 
z
" transform="scale(0.015625)"/>
       <path id="CMR17-28" d="M 1958 -1562 
C 1958 -1556 1958 -1543 1939 -1524 
C 1645 -1223 858 -403 858 1596 
C 858 3595 1632 4408 1946 4729 
C 1946 4735 1958 4748 1958 4767 
C 1958 4787 1939 4800 1914 4800 
C 1843 4800 1299 4325 986 3620 
C 666 2909 576 2218 576 1603 
C 576 1141 621 360 1005 -467 
C 1312 -1133 1837 -1600 1914 -1600 
C 1946 -1600 1958 -1588 1958 -1562 
z
" transform="scale(0.015625)"/>
       <path id="CMMI12-74" d="M 1286 2566 
L 1875 2566 
C 1997 2566 2061 2566 2061 2681 
C 2061 2752 2022 2752 1894 2752 
L 1331 2752 
L 1568 3664 
C 1594 3752 1594 3764 1594 3808 
C 1594 3910 1510 3968 1427 3968 
C 1376 3968 1229 3948 1178 3746 
L 928 2752 
L 326 2752 
C 198 2752 141 2752 141 2630 
C 141 2566 186 2566 307 2566 
L 877 2566 
L 454 881 
C 403 657 384 593 384 510 
C 384 210 595 -64 954 -64 
C 1600 -64 1946 868 1946 913 
C 1946 951 1920 970 1882 970 
C 1869 970 1843 970 1830 944 
C 1824 938 1818 932 1773 830 
C 1638 510 1344 64 973 64 
C 781 64 768 223 768 364 
C 768 370 768 491 787 568 
L 1286 2566 
z
" transform="scale(0.015625)"/>
       <path id="CMR17-29" d="M 1683 1596 
C 1683 2057 1638 2839 1254 3665 
C 947 4332 422 4800 346 4800 
C 326 4800 301 4793 301 4761 
C 301 4748 307 4742 314 4729 
C 621 4408 1402 3595 1402 1603 
C 1402 -396 627 -1210 314 -1530 
C 307 -1543 301 -1549 301 -1562 
C 301 -1594 326 -1600 346 -1600 
C 416 -1600 960 -1127 1274 -422 
C 1594 289 1683 981 1683 1596 
z
" transform="scale(0.015625)"/>
      </defs>
      <use xlink:href="#CMMI12-78" transform="scale(0.996264)"/>
      <use xlink:href="#CMR17-28" transform="translate(55.43406 0) scale(0.996264)"/>
      <use xlink:href="#CMMI12-74" transform="translate(90.714827 0) scale(0.996264)"/>
      <use xlink:href="#CMR17-29" transform="translate(125.941158 0) scale(0.996264)"/>
     </g>
    </g>
    <g id="line2d_24">
     <path d="M 269.959714 45.21462 
L 279.959714 45.21462 
L 289.959714 45.21462 
" style="fill: none; stroke: #ff7f0e; stroke-width: 1.5; stroke-linecap: square"/>
    </g>
    <g id="text_14">
     <!-- $y(t)$ -->
     <g transform="translate(297.959714 48.71462) scale(0.1 -0.1)">
      <defs>
       <path id="CMMI12-79" d="M 1683 -673 
C 1510 -921 1261 -1152 947 -1152 
C 870 -1152 563 -1139 467 -826 
C 486 -833 518 -833 531 -833 
C 723 -833 851 -666 851 -519 
C 851 -372 730 -320 634 -320 
C 531 -320 307 -397 307 -711 
C 307 -1050 582 -1280 947 -1280 
C 1587 -1280 2234 -673 2413 -7 
L 3040 2483 
C 3046 2515 3059 2553 3059 2591 
C 3059 2687 2982 2752 2886 2752 
C 2829 2752 2694 2726 2643 2534 
L 2170 657 
C 2138 542 2138 530 2086 459 
C 1958 281 1747 64 1440 64 
C 1082 64 1050 415 1050 587 
C 1050 951 1222 1443 1395 1902 
C 1466 2087 1504 2177 1504 2305 
C 1504 2573 1312 2816 998 2816 
C 410 2816 173 1890 173 1838 
C 173 1813 198 1781 243 1781 
C 301 1781 307 1807 333 1896 
C 486 2432 730 2687 979 2687 
C 1037 2687 1146 2687 1146 2477 
C 1146 2311 1075 2126 979 1883 
C 666 1047 666 836 666 683 
C 666 76 1101 -64 1421 -64 
C 1606 -64 1837 -7 2061 230 
L 2067 223 
C 1971 -141 1907 -359 1683 -673 
z
" transform="scale(0.015625)"/>
      </defs>
      <use xlink:href="#CMMI12-79" transform="scale(0.996264)"/>
      <use xlink:href="#CMR17-28" transform="translate(51.138781 0) scale(0.996264)"/>
      <use xlink:href="#CMMI12-74" transform="translate(86.419549 0) scale(0.996264)"/>
      <use xlink:href="#CMR17-29" transform="translate(121.645879 0) scale(0.996264)"/>
     </g>
    </g>
   </g>
  </g>
 </g>
 <defs>
  <clipPath id="p1d9efc7597">
   <rect x="45" y="17.28" width="279" height="110.88"/>
  </clipPath>
 </defs>
</svg>
